<svg width="31" height="31" viewBox="0 0 31 31" fill="none" xmlns="http://www.w3.org/2000/svg">
<path d="M3.22202 3.25319H3.07454V3.40067V27.5341V27.6816H3.22202H16.2098H16.3573V27.5341V18.4841V18.3366H16.2098H12.8392V14.6093H16.2112H16.3586V14.4618V11.4451C16.3586 9.74458 16.875 8.45546 17.7534 7.5914C18.6323 6.7268 19.8907 6.2712 21.4065 6.2712C22.7437 6.2712 23.9194 6.33584 24.4004 6.38208V9.74776H22.3692C21.5093 9.74776 20.9629 9.95121 20.6403 10.3467C20.3235 10.7351 20.2535 11.2738 20.2535 11.8635V14.4618V14.6093H20.401H24.2133L23.7474 18.3366H20.3997H20.2522V18.4841V27.5341V27.6816H20.3997H27.3554H27.5029V27.5341V3.40067V3.25319H27.3554H3.22202ZM0.688009 3.40067C0.688009 2.01534 1.83669 0.866659 3.22202 0.866659H27.3554C28.7408 0.866659 29.8894 2.01534 29.8894 3.40067V27.5341C29.8894 28.9194 28.7408 30.0681 27.3554 30.0681H3.22202C1.83669 30.0681 0.688009 28.9194 0.688009 27.5341V3.40067Z" fill="#E8EDD9" stroke="#181818" stroke-width="0.294964"/>
</svg>
