<svg width="1843" height="1016" viewBox="0 0 1843 1016" fill="none" xmlns="http://www.w3.org/2000/svg">
<mask id="mask0_1_1055" style="mask-type:alpha" maskUnits="userSpaceOnUse" x="0" y="0" width="1921" height="1016">
<path d="M1447.18 1015.06L1689.58 1015.06C1670.83 975.824 1652.09 936.571 1633.32 897.338C1624.76 879.451 1616.12 861.583 1606.83 842.308L1822.03 842.308C1792.68 796.631 1764.22 752.323 1735.15 707.121L1919.97 707.12C1919.97 702.692 1919.97 698.244 1919.97 693.815C1918.82 693.035 1917.36 692.408 1916.56 691.439C1892.11 661.12 1867.68 630.764 1843.34 600.369C1842.24 599.001 1841.95 597.233 1840.99 594.971L1919.97 594.971L1919.97 503.73C1869.67 503.597 1819.37 503.445 1769.06 503.35C1768.46 503.35 1767.84 503.92 1766.14 504.776C1789.94 534.448 1813.73 564.101 1838.59 595.123L1663.06 595.123L1663.32 594.819C1686.77 631.562 1710.24 668.305 1734.77 706.721L1541.55 706.721C1563.58 752.494 1584.92 796.821 1606.88 842.461C1588.32 842.461 1571.65 842.499 1554.94 842.461C1500.61 842.309 1446.27 842.118 1391.94 841.947C1395.15 852.972 1398.08 864.073 1401.61 875.022C1416.71 921.726 1431.97 968.372 1447.16 1015.06L1447.18 1015.06Z" fill="#5965C7"/>
<path d="M0.0260119 693.822L0.0260134 707.128L184.677 707.128C155.542 752.444 127.055 796.753 97.7034 842.411L312.161 842.411C310.937 845.851 310.337 848.265 309.234 850.527C299.418 870.866 289.41 891.167 279.69 911.544C263.203 946.026 246.859 980.564 230.444 1015.08L472.837 1015.08C491.364 957.887 509.892 900.672 528.827 842.202L313.025 842.202C335.561 796.277 357.448 751.684 379.335 707.09C315.521 707.09 251.731 707.09 185.757 707.09C188.325 702.623 189.789 699.848 191.517 697.167C213.212 663.047 234.956 628.946 256.699 594.845L256.987 595.149C198.501 595.149 140.014 595.13 81.5278 595.111L81.8158 594.94C60.6724 621.115 39.6249 647.327 18.3135 673.426C12.6017 680.421 6.14588 687.055 0.0500598 693.86L0.0260119 693.822Z" fill="url(#paint0_linear_1_1055)" fill-opacity="0.16"/>
<path d="M379.332 707.074C357.444 751.668 335.557 796.262 313.021 842.186L528.824 842.186C509.888 900.656 491.361 957.872 472.833 1015.07L717.626 1015.07C721.202 990.414 724.586 965.741 728.378 941.125C733.466 908.05 738.866 874.995 744.146 841.939C742.178 842.129 740.21 842.49 738.218 842.49C671.452 842.528 604.685 842.528 537.943 842.49C535.615 842.49 533.287 842.11 529.28 841.768C543.655 796.813 557.863 752.409 572.214 707.512C568.398 707.169 566.07 706.751 563.743 706.77C502.208 706.903 440.65 707.093 379.116 707.264L379.332 707.112L379.332 707.074Z" fill="#5965C7"/>
<path d="M1919.97 707.129L1735.15 707.129C1764.19 752.331 1792.68 796.64 1822.03 842.317L1606.85 842.317C1616.14 861.61 1624.78 879.459 1633.35 897.346C1652.12 936.58 1670.86 975.832 1689.6 1015.07L1919.97 1015.07C1919.97 1007.39 1919.97 999.821 1919.97 992.255C1919.18 991.59 1918.15 991.039 1917.64 990.26C1887.07 942.852 1856.52 895.426 1826.06 847.981C1825.13 846.518 1825.13 844.693 1824.43 842.089L1919.97 842.089L1919.97 707.129Z" fill="url(#paint1_linear_1_1055)" fill-opacity="0.16"/>
<path d="M230.42 1015.07C246.836 980.552 263.179 946.033 279.667 911.533C289.41 891.156 299.418 870.874 309.21 850.516C310.29 848.254 310.914 845.84 312.138 842.399L97.6797 842.399C127.031 796.741 155.518 752.432 184.653 707.116L0.00234985 707.116L0.00236475 842.076L97.3917 842.076C94.5358 846.999 92.8799 850.098 90.9839 853.082C71.8564 882.868 52.8009 912.692 33.4575 942.384C22.5617 959.111 11.162 975.629 0.00238132 992.243L0.00238384 1015.05L230.396 1015.05L230.42 1015.07Z" fill="#5965C7"/>
<path d="M0.0288768 165.382L0.028877 167.283L101.786 167.283L103.538 170.4C88.4904 182.338 73.4189 194.275 57.3634 207.03L166.68 207.03C149.665 222.274 134.521 235.846 117.338 251.243L237.238 251.243C220.823 268.37 205.775 284.052 188.784 301.787L317.012 301.787C300.933 322.069 286.149 340.735 271.365 359.401L271.125 359.116L408.69 359.116C393.978 382.078 380.394 403.33 365.971 425.817L514.095 425.817C501.615 451.915 489.591 476.987 477.16 502.953C527.702 502.953 576.061 502.934 624.444 502.991C629.171 502.991 633.923 503.618 638.651 503.96C639.131 501.508 639.371 499.018 640.115 496.623C647.507 472.957 654.971 449.311 662.435 425.664C613.668 425.664 564.901 425.664 514.191 425.664C525.71 402.341 536.39 380.71 547.094 359.078L547.406 359.382L409.05 359.382C421.577 339.556 433.169 321.251 445.793 301.273L317.732 301.273C331.532 283.919 344.107 268.104 357.979 250.654L238.174 250.654C252.694 235.466 265.702 221.837 280.533 206.326L167.76 206.326C182.928 192.659 196.368 180.551 212.015 166.485L107.906 166.485L105.506 163.462C118.946 152.646 132.385 141.85 146.017 130.882L50.6436 130.882C65.7391 120.275 78.9147 111.018 93.5782 100.715L0.0529175 100.715L0.0529208 131.129L45.9877 131.129L46.8756 133.505C31.2761 144.112 15.6525 154.737 0.0529246 165.344L0.0288768 165.382Z" fill="url(#paint2_linear_1_1055)" fill-opacity="0.16"/>
<path d="M0.0241813 353.577L0.0241819 359.279L132.837 359.279C110.997 382.051 90.5737 403.36 68.6143 426.265L217.026 426.265C196.363 452.078 176.659 476.694 155.42 503.211L315.975 503.211C295.528 535.031 276.257 565.083 256.961 595.117L256.673 594.813C315.159 594.813 373.622 594.851 432.108 594.851L431.844 595.041C446.748 564.931 461.675 534.803 477.587 502.679L316.623 502.679C333.471 476.371 349.239 451.717 365.918 425.676L217.41 425.676C236.058 402.58 253.601 380.854 271.145 359.108L271.385 359.393L133.244 359.393C152.348 339.453 169.771 321.3 188.851 301.379L60.7424 301.379C80.1339 283.949 97.7255 268.134 116.901 250.912L0.0481873 250.912L0.0481929 302.235L60.4545 302.235C38.8071 320.635 19.4396 337.096 0.0481986 353.558L0.0241813 353.577Z" fill="url(#paint3_linear_1_1055)" fill-opacity="0.16"/>
<path d="M1919.97 359.274L1919.97 353.571C1900.56 336.939 1881.14 320.288 1860.1 302.249L1919.97 302.249L1919.97 250.926L1802.81 250.926C1822.27 268.338 1839.77 284.019 1859.45 301.659L1731.55 301.659C1750.63 321.599 1768.01 339.752 1786.63 359.217C1738.85 359.217 1693.73 359.217 1648.61 359.217C1666.25 381.019 1683.89 402.841 1702.71 426.126L1554.46 426.126C1571 451.94 1586.89 476.746 1603.76 503.111L1442.91 503.111C1458.44 534.817 1473.23 564.983 1487.99 595.149L1663.32 594.826L1663.06 595.13C1643.65 564.964 1624.23 534.779 1603.47 502.521L1764.31 502.521C1743.34 476.29 1723.64 451.674 1702.76 425.537L1850.74 425.537C1829.16 403.107 1808.81 381.951 1787.02 359.293L1919.97 359.293L1919.97 359.274Z" fill="#5965C7"/>
<path d="M744.127 841.929C738.847 874.985 733.447 908.041 728.359 941.115C724.567 965.75 721.184 990.423 717.608 1015.06L960.001 1015.06C960.049 957.348 960.097 899.62 960.169 841.91C888.075 842.005 815.957 842.081 743.863 842.176L744.127 841.929Z" fill="url(#paint4_linear_1_1055)" fill-opacity="0.16"/>
<path d="M1447.19 1015.06C1432 968.398 1416.71 921.732 1401.64 875.028C1398.09 864.06 1395.16 852.978 1391.97 841.954L1392.18 842.144C1333.6 842.277 1275.02 842.467 1216.44 842.524C1202.92 842.524 1189.39 842.125 1175.88 841.897C1181.09 875.142 1186.37 908.388 1191.48 941.653C1195.24 966.117 1198.77 990.599 1202.42 1015.06L1447.21 1015.06L1447.19 1015.06Z" fill="url(#paint5_linear_1_1055)" fill-opacity="0.16"/>
<path d="M1202.39 1015.06C1198.75 990.599 1195.22 966.117 1191.45 941.653C1186.34 908.388 1181.06 875.142 1175.85 841.896L1176.16 842.182C1104.07 842.182 1031.95 842.182 959.856 842.182L960.168 841.897C960.12 899.606 960.072 957.335 960 1015.04L1202.39 1015.04L1202.39 1015.06Z" fill="#5965C7"/>
<path d="M158.422 0.0137183C132.023 0.0137201 105.624 0.0137219 79.2245 0.0137238C67.7529 6.78073 56.3052 13.5477 44.8335 20.2957L45.9135 22.4817L123.095 22.4817C110.4 30.7313 100.08 37.4793 89.7363 44.2083C90.1683 44.8166 90.6002 45.4439 91.0322 46.0521L172.702 46.0521C160.198 54.9481 149.279 62.7225 135.863 72.2838L224.06 72.2838L226.581 75.021C215.373 82.5673 204.189 90.1137 192.981 97.679L195.117 100.416L286.435 100.416C274.531 111.251 264.331 120.527 252.26 131.533L352.649 131.533C340.961 143.927 330.666 154.856 318.714 167.535L424.935 167.535C414.375 180.879 404.872 192.911 393.76 206.958L506.605 206.958C497.005 222.203 488.269 236.079 478.741 251.248L598.522 251.248C590.482 268.204 582.923 284.19 574.643 301.658L702.655 301.658C696.247 321.731 690.248 340.607 684.224 359.463L683.816 359.178C730.375 359.273 776.957 359.387 823.516 359.482C825.82 340.512 828.1 321.56 830.572 301.278L702.871 301.278C708.871 283.486 714.391 267.158 719.887 250.811L720.199 251.096L598.954 251.096C606.13 235.87 612.706 221.861 619.978 206.407L507.181 206.407C516.349 192.284 524.508 179.738 532.668 167.174L532.932 167.478L425.751 167.478C435.759 154.647 444.374 143.622 454.31 130.925L353.921 130.925C363.953 120.318 372.664 111.099 383.104 100.055L287.779 100.055C298.819 90.0186 307.794 81.883 318.738 71.9226L230.588 71.9226C230.132 71.2003 229.7 70.478 229.244 69.7556L259.315 47.7249L257.948 45.672L174.502 45.672C186.334 37.2893 195.885 30.5222 208.269 21.7594L126.335 21.7594C138.647 13.4147 148.535 6.70469 158.422 0.0137183Z" fill="#5965C7"/>
<path d="M1919.97 45.6339L1919.97 43.7331L1882.7 24.6106L1883.71 22.8238L1919.97 22.8238L1919.97 0.0136719L1840.77 0.0136773L1874.61 20.0296L1873.89 22.0064L1795.97 22.0064C1809.17 30.5032 1819.68 37.2512 1830.17 43.9992L1829.11 46.0901L1746.77 46.0901C1759.56 55.0051 1770.43 62.6274 1781.33 70.2308L1780.39 72.4358L1695.63 72.4358L1692.94 75.9904C1703.83 83.5557 1714.73 91.1021 1728.07 100.359L1633.37 100.359C1645.32 111.232 1655.52 120.527 1667.79 131.704L1567.47 131.704C1579.21 144.117 1589.52 155.008 1601.67 167.839L1495.26 167.839C1505.67 181.107 1515.2 193.196 1525.93 206.863L1413.51 206.863C1422.92 221.88 1431.66 235.775 1441.11 250.83L1321.52 250.83C1329.56 267.881 1337.12 283.943 1345.43 301.582C1337.48 301.582 1331.63 301.563 1325.8 301.582C1289.41 301.773 1253.05 301.982 1216.67 302.191C1223.1 321.275 1229.53 340.341 1235.97 359.425L1373.48 359.425C1364.03 339.561 1355.24 321.142 1345.67 301.012L1473.61 301.012C1462.57 283.638 1452.46 267.747 1441.83 251.001L1562.55 251.001C1550.96 236.802 1539.34 222.621 1526.12 206.407L1638.99 206.407C1625.98 192.645 1614.53 180.537 1601.28 166.509L1707.58 166.509C1694.23 154.514 1682.33 143.831 1667.95 130.906L1766.3 130.906L1768.34 127.94C1756.42 118.911 1744.49 109.901 1731.05 99.7319L1824.26 99.7319L1786.92 73.5193L1788.1 71.4093L1874.54 71.4093L1833.89 45.6149L1919.97 45.6149L1919.97 45.6339Z" fill="#5965C7"/>
<path d="M684.22 359.425C690.244 340.569 696.244 321.712 702.651 301.62L574.639 301.62C582.895 284.171 590.479 268.166 598.518 251.21L478.738 251.21C488.289 236.041 497.025 222.165 506.601 206.92L393.756 206.92C404.844 192.892 414.371 180.841 424.931 167.497L318.71 167.497C330.662 154.818 340.957 143.888 352.645 131.495L252.256 131.495C264.351 120.489 274.551 111.213 286.431 100.378L195.113 100.378L192.978 97.641C204.185 90.0947 215.369 82.5483 226.577 74.983L224.057 72.2457L135.859 72.2457C149.275 62.6845 160.194 54.9101 172.698 46.0141L91.0283 46.0141C90.5963 45.4058 90.1644 44.7786 89.7324 44.1703C100.076 37.4413 110.396 30.7123 123.091 22.4437L45.9095 22.4437L44.8295 20.2577C56.3013 13.5477 67.749 6.78072 79.2206 0.0137149C52.8214 0.0137168 26.4221 0.0137186 0.0228271 0.0137204L0.0228295 20.923L36.8618 22.5577C37.1017 23.28 37.3419 24.0024 37.5579 24.7247C25.0542 31.0545 12.5265 37.4033 0.022832 43.7331L0.0228322 45.634L86.2284 45.6339C71.3488 55.0621 59.4452 62.6275 44.5656 72.0747L135.427 72.0747C121.531 81.864 109.94 90.0376 98.3242 98.2113C98.6122 98.9146 98.9002 99.5989 99.1881 100.302L191.681 100.302C177.114 111.631 165.354 120.793 151.651 131.476L251.704 131.476C237.736 144.117 225.737 154.97 211.481 167.877L317.606 167.877C305.078 181.145 293.631 193.253 280.455 207.225L393.18 207.225C381.348 222.146 370.501 235.851 358.597 250.868L478.33 250.868C467.41 268.071 457.21 284.152 446.074 301.696L573.631 301.696C564.583 321.617 556.016 340.512 547.424 359.425L547.112 359.121C592.807 359.216 638.525 359.33 684.22 359.425Z" fill="url(#paint6_linear_1_1055)" fill-opacity="0.16"/>
<path d="M547.401 359.425C555.969 340.531 564.561 321.618 573.608 301.697L446.052 301.697C457.188 284.152 467.387 268.09 478.307 250.868L358.574 250.868C370.478 235.852 381.326 222.147 393.157 207.225L280.433 207.225C293.632 193.254 305.056 181.145 317.584 167.878L211.458 167.878C225.714 154.971 237.714 144.117 251.681 131.476L151.628 131.476C165.332 120.813 177.091 111.651 191.659 100.303L99.1656 100.303C98.8776 99.5992 98.5896 98.9149 98.3016 98.2116C109.893 90.038 121.509 81.8644 135.405 72.075L44.5431 72.075C59.4227 62.6278 71.3503 55.0815 86.2059 45.6343L0.000305176 45.6343L0.000308113 72.2461L44.1351 72.2461C27.3596 82.3586 13.6799 90.6083 0.00031105 98.8579L0.00031126 100.759L93.5258 100.759C78.8622 111.061 65.6865 120.318 50.591 130.925L145.964 130.925C132.333 141.893 118.893 152.69 105.453 163.506L107.853 166.528L211.962 166.528C196.339 180.594 182.899 192.703 167.708 206.37L280.481 206.37C265.673 221.88 252.641 235.51 238.122 250.697L357.926 250.697C344.055 268.147 331.479 283.981 317.68 301.317L445.74 301.317C433.116 321.276 421.525 339.6 408.997 359.425L547.353 359.425L547.401 359.425Z" fill="#5965C7"/>
<path d="M256.957 595.128C276.253 565.094 295.548 535.042 315.972 503.222L155.416 503.222C176.655 476.686 196.359 452.07 217.022 426.276L68.6105 426.276C90.5699 403.371 111.017 382.062 132.833 359.29L0.0203247 359.29L0.0203321 425.82L69.3545 425.82C44.8991 450.626 22.4597 473.379 0.0203398 496.151L0.0203407 503.754C50.299 503.659 100.578 503.545 150.856 503.507C151.432 503.507 151.984 504.134 153.352 504.933C129.425 534.947 105.473 565.018 81.4981 595.09C139.985 595.09 198.471 595.109 256.957 595.128Z" fill="#5965C7"/>
<path d="M1919.98 359.277L1787.02 359.277C1808.81 381.935 1829.16 403.091 1850.74 425.521L1702.73 425.521C1723.64 451.658 1743.32 476.274 1764.29 502.505L1603.45 502.505C1624.21 534.763 1643.62 564.948 1663.04 595.114L1838.62 595.114C1813.76 564.093 1789.95 534.44 1766.17 504.767C1767.87 503.912 1768.47 503.342 1769.09 503.342C1819.4 503.437 1869.7 503.589 1920 503.722L1920 496.118C1897.56 473.251 1875.12 450.384 1850.98 425.787L1919.98 425.787L1919.98 359.258L1919.98 359.277Z" fill="url(#paint7_linear_1_1055)" fill-opacity="0.16"/>
<path d="M1216.6 302.21C1252.99 302.001 1289.34 301.792 1325.73 301.601C1331.58 301.563 1337.44 301.601 1345.36 301.601C1337.06 283.962 1329.5 267.918 1321.46 250.849L1441.04 250.849C1431.59 235.794 1422.88 221.88 1413.44 206.882L1525.86 206.882C1515.11 193.215 1505.6 181.107 1495.19 167.858L1601.6 167.858C1589.46 155.027 1579.14 144.136 1567.4 131.723L1667.72 131.723C1655.45 120.546 1645.25 111.27 1633.3 100.378L1728 100.378C1714.66 91.1211 1703.76 83.5557 1692.87 76.0094L1695.56 72.4548L1780.39 72.4548L1781.33 70.2498C1770.44 62.6464 1759.54 55.0431 1746.77 46.1091L1829.11 46.1091L1830.17 44.0182C1819.68 37.2702 1809.17 30.5222 1795.97 22.0254L1873.9 22.0254L1874.62 20.0486L1840.78 0.0136742L1761.58 0.0136797L1794.6 22.3676L1712.98 22.3676C1724.74 30.8073 1734.15 37.5553 1743.53 44.3033L1742.24 46.2992L1661.74 46.2992L1658.19 50.1579C1668.68 57.096 1679.14 64.0341 1691.69 72.3407L1602.01 72.3408C1612.5 81.978 1621.52 90.2657 1632.51 100.359L1537.28 100.359C1547.36 111.137 1556.15 120.546 1566.61 131.723L1466.24 131.723C1476.01 144.06 1484.56 154.875 1494.51 167.459L1387.02 167.459L1387.31 167.155C1395.54 179.89 1403.8 192.607 1413.04 206.863L1300.14 206.863C1307.27 221.937 1313.9 235.908 1321.05 251.077L1201.41 251.077C1206.79 268.85 1211.87 285.615 1216.94 302.4L1216.63 302.229L1216.6 302.21Z" fill="url(#paint8_linear_1_1055)" fill-opacity="0.16"/>
<path d="M319.221 0.0137084C292.03 0.0137102 264.814 0.0137121 237.623 0.013714C228.839 6.7427 220.08 13.4717 211.296 20.2007L212.568 22.3866L288.142 22.3866C289.078 23.5271 290.014 24.6676 290.95 25.8081L263.182 44.0372C263.686 44.7786 264.19 45.5199 264.694 46.2422L347.468 46.2422C337.82 55.1001 329.421 62.7986 319.125 72.2647L409.866 72.2647C400.963 81.864 393.235 90.2087 383.659 100.568L478.84 100.568C470.321 111.441 462.953 120.812 454.385 131.742L554.894 131.742C547.167 144.345 540.087 155.883 533.007 167.44L532.743 167.136L639.012 167.136C632.676 180.822 626.916 193.253 620.533 207.016L732.585 207.015C728.29 222.355 724.282 236.707 720.274 251.077L719.962 250.792C760.065 250.792 800.168 250.792 840.27 250.792L839.91 251.039C842.43 236.403 844.926 221.766 847.446 207.149C810.031 207.149 772.64 207.149 733.401 207.149C738.225 192.626 742.449 179.909 746.673 167.174L639.9 167.174C645.468 154.799 650.508 143.527 656.172 130.963L556.166 130.963C562.742 120.356 568.622 110.909 575.414 99.941L480.376 99.941C488.008 90.0186 494.464 81.5979 502.168 71.5614L411.378 71.5614C419.994 62.3994 427.218 54.72 435.954 45.4248L349.316 45.4248C358.412 37.1942 365.852 30.4652 375.355 21.8734L295.294 21.8734C294.286 20.6759 293.278 19.4593 292.27 18.2618C301.293 12.1791 310.317 6.09641 319.341 0.0137084L319.221 0.0137084Z" fill="#5965C7"/>
<path d="M1682.38 0.0136736C1655.19 0.0136755 1627.97 0.0136774 1600.78 0.0136793C1608.94 6.76167 1617.08 13.5287 1627.3 21.9874L1545.2 21.9874C1554.61 30.5792 1561.97 37.3272 1571.5 46.0141L1484.82 46.0141L1508.93 72.1887L1418.6 72.1887C1425.94 81.7309 1432.38 90.1327 1440.06 100.093L1344.68 100.093C1351.59 111.194 1357.57 120.774 1364.39 131.723L1264.02 131.723C1269.59 143.85 1274.7 154.932 1280.32 167.174C1243.55 167.174 1208.46 167.174 1173.38 167.174C1177.72 180.005 1182.06 192.854 1186.89 207.149L1072.63 207.149C1075 221.785 1077.38 236.441 1079.75 251.077L1200.49 251.077C1195.81 235.946 1191.5 221.975 1186.77 206.673L1299.54 206.673C1293.08 192.835 1287.32 180.423 1281.11 167.117L1387.26 167.117L1386.97 167.421C1379.87 155.693 1372.79 143.965 1364.79 130.773L1464.85 130.773C1456.59 120.318 1449.32 111.08 1440.32 99.6939L1535.96 99.6939C1526.33 89.5244 1518.68 81.4078 1509.44 71.6755L1600.06 71.6755C1590.15 62.5514 1581.58 54.6819 1571 44.9306L1655.79 44.9306L1658.64 41.5851C1649.5 35.4454 1640.35 29.3057 1628.74 21.5122L1707.67 21.5122C1698.91 14.0229 1690.66 7.02778 1682.38 0.0136736Z" fill="url(#paint9_linear_1_1055)" fill-opacity="0.16"/>
<path d="M1648.61 359.216L1786.63 359.216C1767.98 339.752 1750.63 321.599 1731.55 301.659L1859.45 301.659C1839.77 284.038 1822.25 268.356 1802.81 250.925L1919.97 250.925L1919.97 247.123C1902.74 234.369 1885.51 221.633 1866.02 207.206L1919.97 207.206L1919.97 167.288L1817.97 167.288L1815 171.223C1830.5 183.046 1846.03 194.888 1862.21 207.206L1753.78 207.206C1770.48 222.241 1785.74 235.947 1802.54 251.077L1682.28 251.077L1682.5 250.792C1698.07 267.215 1713.65 283.639 1731.12 302.077L1603.35 302.077C1619.28 322.131 1634.09 340.74 1648.92 359.368L1648.61 359.216Z" fill="url(#paint10_linear_1_1055)" fill-opacity="0.16"/>
<path d="M0.0216157 250.925L116.874 250.925C97.6989 268.166 80.1074 283.962 60.7159 301.393L188.824 301.393C169.745 321.314 152.321 339.486 133.218 359.407L271.358 359.407C286.142 340.74 300.925 322.074 317.005 301.792L188.776 301.792C205.768 284.076 220.816 268.375 237.231 251.249L117.33 251.249C134.538 235.833 149.681 222.261 166.673 207.035L57.3561 207.035C73.4356 194.28 88.4832 182.343 103.531 170.406L101.779 167.288L0.0216064 167.288L0.0216109 207.206L54.2122 207.206C34.4847 221.747 17.2532 234.426 0.0216153 247.124L0.0216157 250.925Z" fill="#5965C7"/>
<path d="M1919.97 45.6338L1833.89 45.6338L1874.54 71.4282L1788.1 71.4282L1786.92 73.5382L1824.26 99.7508L1730.95 99.7508C1744.39 109.92 1756.32 118.949 1768.25 127.959L1766.21 130.925L1667.86 130.925C1682.23 143.831 1694.14 154.533 1707.48 166.527L1601.19 166.527C1614.44 180.556 1625.88 192.664 1638.89 206.426L1526.02 206.426C1539.27 222.621 1550.86 236.821 1562.45 251.02L1562.24 250.83C1602.32 250.83 1642.42 250.792 1682.5 250.773L1682.28 251.058C1668.67 236.821 1655.07 222.602 1639.78 206.597L1752.24 206.597L1708.18 166.813L1812.05 166.813L1813.75 164.455C1800 153.83 1786.25 143.204 1770.89 131.324L1869.62 131.324C1854.14 120.432 1840.97 111.175 1826.16 100.758L1919.97 100.758L1919.97 98.8574L1876 72.2456L1919.97 72.2456L1919.97 45.6338Z" fill="url(#paint11_linear_1_1055)" fill-opacity="0.16"/>
<path d="M1682.38 0.0136796C1690.66 7.02779 1698.92 14.0229 1707.75 21.5122L1628.82 21.5122C1640.43 29.3057 1649.58 35.4454 1658.72 41.5851L1655.86 44.9306L1571.07 44.9306C1581.66 54.6819 1590.23 62.5514 1600.14 71.6755L1509.52 71.6755C1518.73 81.4268 1526.41 89.5244 1536.04 99.6939L1440.4 99.6939C1449.4 111.08 1456.67 120.318 1464.93 130.773L1364.87 130.773C1372.84 143.965 1379.94 155.693 1387.05 167.421C1422.04 167.421 1457.03 167.421 1494.54 167.421C1484.58 154.856 1476.04 144.041 1466.27 131.685L1566.63 131.685C1556.17 120.508 1547.39 111.099 1537.31 100.321L1632.54 100.321C1621.55 90.2277 1612.55 81.959 1602.03 72.3027L1691.72 72.3027C1679.17 63.9961 1668.68 57.058 1658.22 50.1199L1661.77 46.2612L1742.26 46.2612L1743.56 44.2653C1734.17 37.5173 1724.77 30.7883 1713.01 22.3296L1794.6 22.3296L1761.58 0.0136742C1735.18 0.013676 1708.78 0.0136778 1682.38 0.0136796Z" fill="#5965C7"/>
<path d="M1173.38 167.193L1280.32 167.193C1274.71 154.97 1269.59 143.87 1264.03 131.742L1364.39 131.742C1357.58 120.793 1351.6 111.213 1344.69 100.112L1440.06 100.112C1432.41 90.1517 1425.95 81.7499 1418.61 72.2077L1508.94 72.2077L1484.82 46.0331L1571.51 46.0331C1562 37.3462 1554.63 30.5982 1545.2 22.0064L1627.3 22.0064C1617.08 13.5287 1608.94 6.76167 1600.78 0.0136737C1574.39 0.0136755 1547.99 0.0136774 1521.59 0.0136792C1528.26 6.78068 1534.93 13.5477 1543.19 21.9114L1461.4 21.9114C1469.56 30.5602 1475.99 37.4033 1483.88 45.786L1396.65 45.786L1396.91 45.4819C1403.34 53.9216 1409.75 62.3423 1417.19 72.0746L1326.54 72.0747C1332.54 81.6359 1337.9 90.1327 1344.09 100.017C1335.14 100.017 1328.44 99.96 1321.77 100.017C1297.12 100.302 1272.47 100.625 1247.83 100.929L1248.09 100.625C1253.03 110.453 1258 120.299 1263.67 131.533L1162.58 131.533C1166.56 144.307 1170.14 155.845 1173.74 167.383L1173.38 167.174L1173.38 167.193Z" fill="#5965C7"/>
<path d="M319.222 0.0137021C310.198 6.0964 301.174 12.1791 292.15 18.2618C293.158 19.4593 294.166 20.6759 295.174 21.8734L375.236 21.8734C365.732 30.4842 358.316 37.1942 349.197 45.4248L435.834 45.4248C427.099 54.72 419.851 62.4184 411.259 71.5614L502.048 71.5614C494.345 81.5979 487.889 90.0186 480.257 99.941L575.294 99.941C568.479 110.909 562.623 120.356 556.047 130.963L656.052 130.963C650.412 143.527 645.349 154.799 639.781 167.174L746.554 167.174L746.218 167.402C749.722 155.731 753.226 144.06 757.065 131.286L656.508 131.286C662.004 120.318 666.948 110.472 671.868 100.625L672.156 100.948L575.27 100.948C582.254 89.9426 587.534 81.6169 593.798 71.6945L502.624 71.6945C510.232 61.9241 516.64 53.6935 523.048 45.4819L523.288 45.767L436.074 45.767C444.234 37.1372 450.546 30.4652 458.61 21.9114L376.436 21.9114C384.74 13.6237 391.555 6.81872 398.371 0.0136966C371.972 0.0136985 345.573 0.0137003 319.173 0.0137021L319.222 0.0137021Z" fill="url(#paint12_linear_1_1055)" fill-opacity="0.16"/>
<path d="M532.955 167.44C540.035 155.883 547.115 144.345 554.843 131.742L454.333 131.742C462.901 120.812 470.269 111.441 478.789 100.568L383.607 100.568C393.183 90.2277 400.911 81.883 409.815 72.2647L319.073 72.2647C329.369 62.8175 337.769 55.1001 347.416 46.2422L264.643 46.2422C264.139 45.5009 263.635 44.7595 263.131 44.0372L290.898 25.8081C289.962 24.6676 289.026 23.5271 288.09 22.3866L212.516 22.3866L211.244 20.2006C220.076 13.4717 228.836 6.74268 237.619 0.0136938C211.22 0.0136956 184.821 0.0136974 158.422 0.0136993C148.534 6.70467 138.646 13.4146 126.382 21.7023L208.316 21.7023C195.932 30.4842 186.381 37.2512 174.549 45.6149L257.995 45.6149L259.363 47.6678L229.292 69.6986C229.748 70.4209 230.18 71.1432 230.636 71.8656L318.785 71.8656C307.817 81.826 298.866 89.9616 287.826 99.998L383.151 99.998C372.712 111.042 364 120.261 353.968 130.868L454.357 130.868C444.446 143.565 435.83 154.59 425.798 167.421C463.045 167.421 498.012 167.421 532.979 167.421L532.955 167.44Z" fill="url(#paint13_linear_1_1055)" fill-opacity="0.16"/>
<path d="M1919.97 100.762L1826.16 100.762C1840.97 111.178 1854.12 120.435 1869.62 131.327L1770.89 131.327C1786.27 143.208 1800.02 153.833 1813.75 164.459L1812.05 166.816L1708.2 166.816L1752.27 206.601L1639.81 206.601C1655.09 222.587 1668.7 236.824 1682.31 251.061C1721.43 251.061 1760.55 251.061 1802.57 251.061C1785.75 235.931 1770.51 222.226 1753.8 207.19L1862.21 207.19C1846.03 194.853 1830.53 183.03 1815 171.207L1817.98 167.272L1919.97 167.272L1919.97 165.371C1904.35 154.67 1888.7 143.949 1873.08 133.247L1874.71 131.156L1919.97 131.156L1919.97 100.743L1919.97 100.762Z" fill="#5965C7"/>
<path d="M1439.99 0.0136733C1413.59 0.0136751 1387.19 0.013677 1360.79 0.0136788C1365.64 6.74266 1370.49 13.4526 1376.54 21.8734L1294.65 21.8734C1299.76 30.4462 1303.89 37.4033 1308.9 45.786L1221.43 45.786L1221.74 45.4819C1225.87 53.8836 1230 62.2853 1234.82 72.1317L1142.25 72.1317C1145.49 81.0276 1148.71 89.9426 1152.33 99.903C1146.33 99.903 1142.4 99.865 1138.46 99.903C1110.93 100.169 1083.41 100.454 1055.88 100.739L1060.68 131.267L1162.05 131.267C1158.89 120.66 1155.98 110.947 1152.89 100.606L1248.14 100.606L1247.87 100.91C1243.91 91.5773 1239.98 82.2251 1235.59 71.8656L1325.94 71.8655C1320.28 62.7225 1315.34 54.758 1309.55 45.4438L1396.98 45.4438L1396.72 45.748C1390.96 38.3727 1385.17 30.9974 1378 21.8354L1460.84 21.8353C1452.8 13.4716 1446.4 6.74266 1439.99 0.0136733Z" fill="#5965C7"/>
<path d="M81.5046 595.096C105.456 565.025 129.431 534.953 153.359 504.939C152.015 504.141 151.439 503.513 150.863 503.513C100.584 503.57 50.3055 503.666 0.0268555 503.761L0.0268656 595.001C27.2901 594.982 54.5294 594.944 81.7926 594.925L81.5046 595.096Z" fill="url(#paint14_linear_1_1055)" fill-opacity="0.16"/>
<path d="M559.208 0.0136868C532.808 0.0136887 506.409 0.0136905 480.01 0.0136923C473.602 6.70466 467.218 13.3956 459.106 21.8734L542.264 21.8734C534.92 31.1305 529.112 38.4677 523.305 45.786L523.065 45.5009C551.624 45.5009 580.159 45.5009 610.398 45.5009C604.71 54.758 599.79 62.7415 593.935 72.2647L684.388 72.2647C679.972 82.6433 676.084 91.8054 672.173 100.967L671.885 100.644C703.996 100.777 736.107 100.891 768.218 101.024C770.69 91.6533 773.162 82.2822 775.898 71.9416L685.372 71.9416C690.028 62.3803 694.156 53.9406 698.26 45.5009L698.644 45.862L611.238 45.862C616.206 37.3843 620.406 30.2371 625.494 21.5312L543.416 21.5312C549.32 13.4907 554.264 6.76168 559.184 0.0136868L559.208 0.0136868Z" fill="url(#paint15_linear_1_1055)" fill-opacity="0.16"/>
<path d="M0.0218061 992.254C11.1815 975.64 22.5812 959.122 33.4769 942.394C52.8203 912.684 71.8517 882.879 91.0032 853.093C92.9232 850.108 94.5552 847.029 97.4111 842.087L0.0217896 842.087L0.0218061 992.254Z" fill="url(#paint16_linear_1_1055)" fill-opacity="0.16"/>
<path d="M1919.97 842.087L1824.43 842.087C1825.13 844.691 1825.13 846.516 1826.06 847.98C1856.52 895.425 1887.07 942.851 1917.65 990.258C1918.15 991.037 1919.18 991.588 1919.97 992.253C1919.97 942.204 1919.97 892.136 1919.97 842.087Z" fill="#5965C7"/>
<path d="M1199.99 0.0136726C1173.6 0.0136744 1147.2 0.0136762 1120.8 0.0136781C1122.55 6.97076 1124.3 13.9088 1126.41 22.2535L1043.9 22.2535C1044.96 30.5412 1045.85 37.5934 1046.9 45.805C1016.98 45.805 988.392 45.805 959.833 45.805L960.193 45.5009L959.857 72.4168C990.36 72.3218 1020.86 72.2267 1051.39 72.1127L1051.03 72.4168C1050.12 63.768 1049.21 55.1191 1048.17 45.5009L1135.41 45.5009L1134.96 45.824C1132.48 38.2967 1130.01 30.7693 1127.04 21.7023L1210.36 21.7023C1206.43 13.4716 1203.21 6.74266 1199.99 0.0136726Z" fill="url(#paint17_linear_1_1055)" fill-opacity="0.16"/>
<path d="M959.832 45.805L1046.9 45.805C1045.85 37.5933 1044.96 30.5412 1043.9 22.2535L1126.41 22.2535C1124.3 13.9088 1122.55 6.97076 1120.8 0.0136723C1093.6 0.0136741 1066.39 0.013676 1039.2 0.0136779C1040.61 6.76167 1042.05 13.5287 1043.64 21.132L960 21.132L960 0.0136834L880.802 0.0136888C879.41 7.00879 878.042 13.9849 876.41 22.1965L959.832 22.1965L959.832 45.805Z" fill="#5965C7"/>
<path d="M81.7939 594.904C54.5307 594.923 27.2914 594.961 0.0281906 594.98L0.0282015 693.824C6.14803 687.019 12.5798 680.404 18.2917 673.39C39.5791 647.292 60.6505 621.079 81.7939 594.904Z" fill="#5965C7"/>
<path d="M1919.97 594.977L1840.99 594.977C1841.95 597.239 1842.24 599.006 1843.34 600.375C1867.68 630.769 1892.09 661.107 1916.57 691.444C1917.36 692.414 1918.82 693.041 1919.97 693.82C1919.97 660.879 1919.97 627.918 1919.97 594.977Z" fill="url(#paint18_linear_1_1055)" fill-opacity="0.16"/>
<path d="M1199.99 0.0136783C1203.21 6.74266 1206.42 13.4716 1210.36 21.7023L1127.03 21.7023C1130.01 30.7693 1132.48 38.2967 1134.95 45.824C1163.87 45.7099 1192.79 45.5959 1221.71 45.5009L1221.4 45.805C1218.23 38.2776 1215.04 30.7503 1211.27 21.7783L1292.87 21.7783C1288.69 13.7378 1285.14 6.89472 1281.59 0.0326811C1254.4 0.032683 1227.18 0.0326848 1199.99 0.0326867L1199.99 0.0136783Z" fill="#5965C7"/>
<path d="M559.21 0.0136822C554.266 6.74267 549.322 13.4907 543.442 21.5312L625.52 21.5312C620.432 30.2181 616.232 37.3652 611.264 45.862C641.527 45.862 670.111 45.862 698.67 45.862C701.79 38.2967 704.934 30.7313 708.654 21.7403L627.056 21.7403C631.256 13.7188 634.832 6.87572 638.432 0.0326852C612.032 0.032687 585.633 0.0326888 559.234 0.0326906L559.21 0.0136822Z" fill="#5965C7"/>
<path d="M799.207 0.0136772L720.009 0.0136826C716.793 6.93275 713.553 13.8328 709.713 22.0445L792.751 22.0444C789.943 30.6933 787.471 38.2396 785.023 45.805L784.615 45.5009C814.35 45.5009 844.085 45.5389 873.82 45.5389L873.556 45.748C874.252 38.0876 874.924 30.4462 875.692 21.8544L793.879 21.8544C795.823 13.8898 797.503 6.95175 799.182 0.0136772L799.207 0.0136772Z" fill="#5965C7"/>
<path d="M523.309 45.786C529.117 38.4487 534.925 31.1305 542.269 21.8734L459.111 21.8734C467.223 13.3956 473.63 6.70464 480.014 0.0136762C452.823 0.0136781 425.608 0.0136799 398.417 0.0136818C391.601 6.8187 384.785 13.6237 376.481 21.9114L458.655 21.9114C450.567 30.4652 444.255 37.1371 436.12 45.767C466.695 45.767 495.014 45.767 523.333 45.767L523.309 45.786Z" fill="#5965C7"/>
<path d="M1439.99 0.013679C1446.4 6.74266 1452.8 13.4716 1460.8 21.8734L1377.95 21.8734C1385.13 31.0544 1390.91 38.4297 1396.67 45.786C1424.85 45.786 1453.02 45.786 1483.91 45.786C1476.01 37.4033 1469.58 30.5792 1461.42 21.9114L1543.21 21.9114C1534.93 13.5477 1528.26 6.78067 1521.59 0.0136734C1494.4 0.0136752 1467.18 0.0136771 1439.99 0.013679Z" fill="url(#paint19_linear_1_1055)" fill-opacity="0.16"/>
<path d="M799.199 0.013683C797.519 6.95176 795.815 13.8708 793.895 21.8544L875.709 21.8544C874.941 30.4462 874.245 38.1066 873.573 45.748C902.444 45.6719 931.315 45.5769 960.187 45.5008L959.827 45.805L959.827 22.1965L876.405 22.1965C878.037 13.9849 879.405 7.00878 880.797 0.0136774C853.606 0.0136792 826.39 0.0136811 799.199 0.013683Z" fill="url(#paint20_linear_1_1055)" fill-opacity="0.16"/>
<path d="M785.015 45.7913C787.463 38.245 789.935 30.6986 792.743 22.0308L709.705 22.0308C713.545 13.8191 716.761 6.91907 720.001 6.35931e-06C692.81 8.73644e-06 665.595 1.11157e-05 638.403 1.34928e-05C634.828 6.84305 631.228 13.6861 627.028 21.7076L708.626 21.7076C704.906 30.6986 701.762 38.264 698.642 45.8293L698.258 45.4682C727.177 45.5632 756.072 45.6773 784.991 45.7723L785.015 45.7913Z" fill="url(#paint21_linear_1_1055)" fill-opacity="0.16"/>
<path d="M1281.59 0.0136784C1285.15 6.85671 1288.7 13.7188 1292.87 21.7593L1211.28 21.7593C1215.07 30.7313 1218.24 38.2586 1221.4 45.786C1250.01 45.786 1278.59 45.786 1308.88 45.786C1303.89 37.3843 1299.74 30.4462 1294.62 21.8734L1376.51 21.8734C1370.49 13.4526 1365.64 6.74266 1360.79 0.013673L1281.59 0.0136784Z" fill="url(#paint22_linear_1_1055)" fill-opacity="0.16"/>
<path d="M0.0267259 496.135C22.4661 473.363 44.9055 450.61 69.3608 425.804L0.0267181 425.804L0.0267259 496.135Z" fill="url(#paint23_linear_1_1055)" fill-opacity="0.16"/>
<path d="M960.004 0.0136777L960.004 21.132L1043.64 21.132C1042.03 13.5287 1040.62 6.78067 1039.2 0.0136722L960.004 0.0136777Z" fill="url(#paint24_linear_1_1055)" fill-opacity="0.16"/>
<path d="M0.0321941 353.574C19.3997 337.112 38.7911 320.651 60.4385 302.251L0.0321884 302.251L0.0321941 353.574Z" fill="#5965C7"/>
<path d="M0.0213705 247.126C17.2529 234.429 34.4845 221.75 54.2119 207.208L0.0213661 207.208L0.0213705 247.126Z" fill="url(#paint25_linear_1_1055)" fill-opacity="0.16"/>
<path d="M0.0295715 165.39C15.6291 154.783 31.2527 144.157 46.8523 133.551L45.9643 131.175L0.0295677 131.175L0.0295715 165.39Z" fill="#5965C7"/>
<path d="M0.0282813 98.8579C13.7079 90.6082 27.3876 82.3586 44.1631 72.2461L0.0282784 72.2461L0.0282813 98.8579Z" fill="url(#paint26_linear_1_1055)" fill-opacity="0.16"/>
<path d="M0.0265299 43.7354C12.5302 37.4056 25.0579 31.0568 37.5615 24.727C37.3215 24.0047 37.0814 23.2823 36.8654 22.56L0.0265274 20.9253L0.0265299 43.7354Z" fill="#5965C7"/>
<path d="M1663.3 594.819L1487.96 595.142L1488.15 594.819C1489.28 597.822 1490.19 600.883 1491.61 603.791C1505.79 633.292 1520.07 662.755 1534.28 692.256C1536.46 696.761 1538.43 701.342 1541.17 707.349L1347.93 707.349C1352.44 721.377 1356.49 734.189 1360.69 746.962C1371.13 778.687 1381.67 810.412 1392.16 842.118L1391.94 841.928C1446.28 842.1 1500.61 842.29 1554.94 842.442C1571.62 842.48 1588.33 842.442 1606.88 842.442C1584.92 796.802 1563.58 752.475 1541.55 706.702L1734.75 706.702C1710.22 668.286 1686.77 631.543 1663.3 594.8L1663.3 594.819Z" fill="url(#paint27_linear_1_1055)" fill-opacity="0.16"/>
<path d="M432.106 594.87C373.62 594.87 315.158 594.832 256.671 594.832C234.928 628.933 213.209 663.034 191.489 697.154C189.785 699.834 188.321 702.628 185.729 707.076C251.704 707.076 315.518 707.076 379.308 707.076L379.092 707.228C380.436 703.94 381.612 700.613 383.172 697.382C399.443 663.205 415.787 629.028 432.106 594.87Z" fill="#5965C7"/>
<path d="M432.112 594.87C415.792 629.047 399.449 663.205 383.177 697.382C381.641 700.613 380.465 703.94 379.097 707.228C440.632 707.057 502.19 706.867 563.724 706.734C566.052 706.734 568.38 707.133 572.196 707.475C557.844 752.373 543.637 796.796 529.261 841.732C533.269 842.074 535.597 842.454 537.925 842.454C604.691 842.492 671.457 842.492 738.199 842.454C740.167 842.454 742.135 842.093 744.127 841.903L743.863 842.15C751.135 797.1 758.407 752.05 765.679 707L572.364 707C584.532 668.945 596.195 632.468 608.171 595.022L431.848 595.022L432.112 594.832L432.112 594.87Z" fill="url(#paint28_linear_1_1055)" fill-opacity="0.16"/>
<path d="M431.843 595.054L608.166 595.054C596.19 632.5 584.526 668.996 572.359 707.032L765.674 707.032L765.362 707.298C767.857 693.251 770.401 679.185 772.849 665.138C776.929 641.7 780.961 618.263 784.993 594.806L608.526 594.806C618.63 563.842 628.445 533.732 638.261 503.623L638.669 503.984C633.941 503.642 629.189 503.015 624.461 503.015C576.079 502.939 527.72 502.977 477.178 502.977C489.609 476.992 501.609 451.92 514.112 425.841L365.989 425.841C380.388 403.335 393.996 382.102 408.707 359.14L271.143 359.14C253.6 380.867 236.056 402.612 217.409 425.707L365.917 425.707C349.261 451.749 333.469 476.403 316.622 502.711L477.585 502.711C461.674 534.835 446.77 564.944 431.843 595.073L431.843 595.054Z" fill="#5965C7"/>
<path d="M662.459 425.705C655.02 449.351 647.532 472.998 640.14 496.663C639.396 499.058 639.156 501.548 638.676 504L638.268 503.639C670.931 503.468 703.594 503.164 736.257 503.183C757.329 503.183 778.376 503.715 799.448 504.019C803.407 477.902 807.367 451.803 811.327 425.686C761.625 425.762 711.922 425.838 662.243 425.895L662.459 425.724L662.459 425.705Z" fill="#5965C7"/>
<path d="M684.225 359.431C638.53 359.336 592.812 359.222 547.117 359.126C536.437 380.758 525.733 402.39 514.214 425.713C564.9 425.713 613.691 425.713 662.458 425.713L662.242 425.884C669.441 403.625 676.641 381.385 683.841 359.126L684.249 359.412L684.225 359.431Z" fill="#5965C7"/>
<path d="M1487.98 595.131C1473.2 564.965 1458.44 534.799 1442.91 503.093L1603.76 503.093C1586.89 476.747 1571 451.941 1554.46 426.108L1702.71 426.108C1683.89 402.823 1666.25 381.02 1648.61 359.199L1648.92 359.351L1511.38 359.351C1525.88 382.066 1539.51 403.45 1553.89 425.937L1406.29 425.937L1406.6 425.633C1418.36 451.124 1430.1 476.614 1442.31 503.093C1418.22 503.093 1395.92 503.017 1373.6 503.093C1342.91 503.226 1312.21 503.473 1281.49 503.682C1291.57 533.753 1301.65 563.824 1312.02 594.789L1135 594.789C1137.47 608.855 1139.97 622.903 1142.42 636.969C1146.5 660.406 1150.55 683.844 1154.63 707.262L1154.35 707.015L1347.47 707.015C1335.28 668.884 1323.61 632.426 1311.56 594.789L1488.2 594.789L1488.01 595.112L1487.98 595.131Z" fill="url(#paint29_linear_1_1055)" fill-opacity="0.16"/>
<path d="M765.672 707.035C758.4 752.085 751.128 797.135 743.857 842.185C815.951 842.09 888.069 842.014 960.163 841.919L959.851 842.204C959.971 797.192 960.067 752.18 960.187 707.149C919.94 706.997 879.717 706.731 839.47 706.712C814.775 706.712 790.079 707.092 765.384 707.301L765.696 707.035L765.672 707.035Z" fill="#5965C7"/>
<path d="M1488.18 594.832L1311.54 594.832C1323.59 632.468 1335.25 668.907 1347.45 707.057C1281.83 707.057 1218.09 707.057 1154.32 707.057C1161.6 752.107 1168.89 797.157 1176.16 842.207L1175.85 841.922C1189.36 842.15 1202.9 842.568 1216.41 842.549C1274.99 842.492 1333.57 842.302 1392.16 842.169C1381.67 810.444 1371.13 778.738 1360.69 747.013C1356.49 734.22 1352.44 721.409 1347.93 707.399L1541.17 707.399C1538.43 701.393 1536.47 696.812 1534.28 692.307C1520.07 662.806 1505.79 633.343 1491.61 603.842C1490.22 600.933 1489.31 597.854 1488.15 594.87L1488.18 594.832Z" fill="#5965C7"/>
<path d="M1176.16 842.186C1168.89 797.136 1161.6 752.086 1154.32 707.036L1154.61 707.283C1102.39 707.074 1050.17 706.827 997.944 706.713C985.224 706.694 972.529 707.093 959.809 707.302L960.145 707.112C960.025 752.124 959.929 797.136 959.809 842.167C1031.9 842.167 1104.02 842.167 1176.12 842.167L1176.16 842.186Z" fill="url(#paint30_linear_1_1055)" fill-opacity="0.16"/>
<path d="M840.196 250.794C800.093 250.794 759.99 250.794 719.888 250.794C714.368 267.141 708.872 283.469 702.872 301.261L830.573 301.261C828.125 321.543 825.821 340.495 823.517 359.465L823.085 359.161C868.779 359.161 914.474 359.161 960.169 359.161L959.809 359.446L959.809 301.261L831.461 301.261C834.484 283.755 837.34 267.293 840.172 250.813L840.196 250.794Z" fill="url(#paint31_linear_1_1055)" fill-opacity="0.16"/>
<path d="M683.836 359.14C676.636 381.399 669.437 403.639 662.237 425.898C711.94 425.821 761.642 425.745 811.321 425.688L811.009 425.936C811.873 421.297 812.761 416.659 813.601 412.002C816.769 394.382 819.937 376.761 823.08 359.14L823.512 359.444C776.954 359.349 730.371 359.235 683.812 359.14L683.836 359.14Z" fill="url(#paint32_linear_1_1055)" fill-opacity="0.16"/>
<path d="M720.219 251.053C724.226 236.682 728.258 222.331 732.53 206.991L620.477 206.991C626.861 193.229 632.621 180.797 638.957 167.111C602.67 167.111 567.679 167.111 532.688 167.111C524.528 179.676 516.368 192.221 507.201 206.345L619.997 206.345C612.726 221.799 606.126 235.808 598.974 251.034L720.219 251.034L720.219 251.053Z" fill="url(#paint33_linear_1_1055)" fill-opacity="0.16"/>
<path d="M1562.45 251.029L1441.73 251.029C1452.37 267.757 1462.47 283.648 1473.51 301.041L1345.57 301.041C1355.15 321.171 1363.93 339.59 1373.38 359.454L1235.87 359.454L1236.13 359.13C1243.24 381.408 1250.36 403.686 1257.47 425.964L1406.55 425.66L1406.24 425.964C1395.49 404.104 1384.74 382.245 1373.22 358.826L1510.78 358.826C1498.37 339.4 1486.83 321.266 1474.09 301.307L1601.86 301.307C1587.82 283.458 1575 267.149 1562.19 250.839L1562.4 251.029L1562.45 251.029Z" fill="url(#paint34_linear_1_1055)" fill-opacity="0.16"/>
<path d="M1235.9 359.438C1229.47 340.354 1223.03 321.288 1216.6 302.204L1216.91 302.375C1175.11 302.28 1133.3 302.166 1091.49 302.128C1090.92 302.128 1090.32 302.907 1089.07 303.82C1091.81 321.726 1094.61 340.031 1097.56 359.4L959.809 359.4L960.169 359.115C960.169 381.374 960.169 403.652 960.169 425.911L959.809 425.626C1009.51 425.721 1059.24 425.797 1108.94 425.892C1105.29 403.937 1101.67 382.001 1097.88 359.096L1236.16 359.096L1235.9 359.419L1235.9 359.438Z" fill="url(#paint35_linear_1_1055)" fill-opacity="0.16"/>
<path d="M959.831 359.408L1097.59 359.408C1094.61 340.039 1091.83 321.715 1089.09 303.828C1090.34 302.934 1090.94 302.136 1091.52 302.136C1133.32 302.174 1175.13 302.288 1216.94 302.383C1211.87 285.618 1206.78 268.833 1201.41 251.06L1321.04 251.06C1313.87 235.911 1307.27 221.92 1300.14 206.847L1413.03 206.847C1403.79 192.59 1395.56 179.855 1387.31 167.138L1281.16 167.138C1287.35 180.444 1293.13 192.838 1299.59 206.695L1186.82 206.695C1191.54 221.997 1195.86 235.968 1200.54 251.098C1159.53 251.098 1119.67 251.098 1079.8 251.098L1080.19 250.775C1082.9 267.294 1085.61 283.793 1088.42 300.805L959.879 300.805L959.879 250.794L960.191 251.06C920.088 251.06 879.985 251.06 839.882 251.06L840.242 250.813C837.386 267.275 834.554 283.736 831.53 301.262L959.879 301.262L959.879 359.446L959.831 359.408Z" fill="#5965C7"/>
<path d="M839.86 251.059L960.169 251.059C960.169 236.441 960.169 221.824 960.169 207.187C922.466 207.244 884.787 207.301 847.084 207.34L847.396 207.149L839.86 251.04L839.86 251.059Z" fill="url(#paint36_linear_1_1055)" fill-opacity="0.16"/>
<path d="M746.592 167.176C742.368 179.911 738.145 192.628 733.321 207.15C772.56 207.15 809.975 207.15 847.366 207.15L847.054 207.34C848.686 193.939 850.341 180.557 851.973 167.156C816.718 167.233 781.487 167.328 746.232 167.404L746.568 167.176L746.592 167.176Z" fill="url(#paint37_linear_1_1055)" fill-opacity="0.16"/>
<path d="M960.139 207.182C960.139 221.8 960.139 236.436 960.139 251.054L959.827 250.787C999.93 250.787 1040.03 250.787 1080.14 250.768L1079.75 251.092C1077.38 236.455 1075 221.8 1072.62 207.163L1072.91 207.334L959.827 207.334L960.139 207.182Z" fill="#5965C7"/>
<path d="M1072.63 207.169L1186.89 207.169C1182.06 192.875 1177.72 180.025 1173.38 167.195L1173.74 167.404C1138.48 167.328 1103.25 167.233 1067.99 167.157C1069.63 180.558 1071.28 193.94 1072.91 207.341L1072.63 207.169Z" fill="#5965C7"/>
<path d="M1562.24 250.832C1575.05 267.141 1587.87 283.45 1601.91 301.299L1474.14 301.299C1486.88 321.258 1498.42 339.373 1510.83 358.819L1373.27 358.819C1384.79 382.237 1395.54 404.097 1406.29 425.957L1553.89 425.957C1539.53 403.451 1525.88 382.085 1511.38 359.37L1648.92 359.37C1634.11 340.742 1619.31 322.114 1603.35 302.079L1731.12 302.079C1713.65 283.66 1698.07 267.217 1682.5 250.794C1642.42 250.794 1602.32 250.832 1562.24 250.851L1562.24 250.832Z" fill="#5965C7"/>
<path d="M1068 167.153L1173.74 167.4C1170.14 155.862 1166.56 144.324 1162.58 131.551L1263.67 131.551C1258 120.298 1253.06 110.47 1248.09 100.643C1216.65 100.643 1185.21 100.643 1152.84 100.643C1155.93 110.983 1158.84 120.678 1162 131.303L1060.63 131.303L1060.97 131.018L1068.26 167.419L1068 167.172L1068 167.153Z" fill="url(#paint38_linear_1_1055)" fill-opacity="0.16"/>
<path d="M1396.93 45.4888C1368.4 45.4888 1339.88 45.4888 1309.5 45.4888C1315.26 54.8029 1320.23 62.7674 1325.89 71.9105L1235.54 71.9105C1239.93 82.2701 1243.86 91.6222 1247.82 100.955C1272.47 100.651 1297.12 100.328 1321.76 100.043C1328.46 99.9669 1335.13 100.043 1344.08 100.043C1337.87 90.1586 1332.54 81.6808 1326.54 72.1006L1417.19 72.1006C1409.77 62.3683 1403.34 53.9285 1396.91 45.5078L1396.93 45.4888Z" fill="url(#paint39_linear_1_1055)" fill-opacity="0.16"/>
<path d="M746.259 167.401C781.514 167.325 816.745 167.23 852 167.154L851.76 167.401C854.184 155.273 856.632 143.127 859.056 131L859.392 131.285L757.826 131.285C761.522 120.013 764.69 110.318 767.882 100.643L768.266 101.023C736.155 100.89 704.044 100.776 671.933 100.643C666.989 110.489 662.069 120.336 656.573 131.304L757.13 131.304C753.291 144.077 749.787 155.749 746.283 167.42L746.259 167.401Z" fill="#5965C7"/>
<path d="M672.203 100.955C676.091 91.7933 680.003 82.6312 684.419 72.2526L593.965 72.2526C599.821 62.7294 604.741 54.7459 610.429 45.4888C580.19 45.4888 551.655 45.4888 523.095 45.4888C516.688 53.7194 510.28 61.9311 502.672 71.7014L593.845 71.7014C587.558 81.6048 582.278 89.9495 575.318 100.955L672.203 100.955Z" fill="#5965C7"/>
<path d="M1060.63 131.289L1055.83 100.761L1056.17 100.932L959.833 100.932C959.833 111.235 959.833 121.252 959.833 131.251C993.552 131.174 1027.25 131.098 1060.97 131.022L1060.63 131.308L1060.63 131.289Z" fill="url(#paint40_linear_1_1055)" fill-opacity="0.16"/>
<path d="M1055.83 100.76C1083.36 100.475 1110.89 100.19 1138.41 99.9236C1142.35 99.8856 1146.28 99.9236 1152.28 99.9236C1148.66 89.9442 1145.44 81.0482 1142.2 72.1523L1142.49 72.3614L1050.98 72.4184L1051.34 72.1143C1052.95 81.7135 1054.53 91.3318 1056.14 100.931L1055.81 100.76L1055.83 100.76Z" fill="url(#paint41_linear_1_1055)" fill-opacity="0.16"/>
<path d="M1221.71 45.4888C1192.79 45.6028 1163.87 45.7169 1134.95 45.8119L1135.41 45.4888L1142.51 72.3477L1142.22 72.1386C1172.42 72.1386 1202.58 72.1386 1234.79 72.1386C1229.97 62.2922 1225.84 53.8905 1221.71 45.4888Z" fill="url(#paint42_linear_1_1055)" fill-opacity="0.16"/>
<path d="M1056.17 100.936C1054.56 91.3371 1052.98 81.7188 1051.37 72.1196C1020.86 72.2146 990.361 72.3097 959.834 72.4237L960.17 72.1386L960.17 99.1686L863.98 99.1686C865.636 89.5313 867.148 80.8255 868.66 72.1196L869.02 72.4047L777.415 72.4047C780.055 62.5394 782.359 54.0046 784.638 45.4888L785.046 45.7929C756.127 45.6979 727.232 45.5838 698.313 45.4888C694.209 53.9285 690.081 62.3683 685.425 71.9295L775.951 71.9295C773.215 82.2701 770.743 91.6413 768.271 101.012L767.887 100.632C799.638 100.632 831.389 100.632 863.548 100.632C862.084 111.372 860.74 121.332 859.396 131.274L859.06 130.989C892.756 130.989 926.475 130.989 960.17 130.989L959.834 131.217L959.834 100.898L1056.17 100.898L1056.17 100.936Z" fill="#5965C7"/>
<path d="M960.169 45.5024C931.298 45.5785 902.427 45.6735 873.555 45.7496L873.819 45.5405L868.995 72.4184L868.635 72.1333L960.145 72.1332L959.809 72.4374C959.929 63.4654 960.025 54.4934 960.145 45.5215L960.169 45.5024Z" fill="#5965C7"/>
<path d="M1142.51 72.3477L1135.41 45.4888C1106.75 45.4888 1078.1 45.4888 1048.17 45.4888C1049.18 55.107 1050.11 63.7559 1051.03 72.4047C1081.53 72.3857 1112.03 72.3667 1142.54 72.3477L1142.51 72.3477Z" fill="#5965C7"/>
<path d="M868.993 72.4047L873.817 45.5268C844.082 45.5268 814.347 45.4888 784.612 45.4888C782.332 54.0046 780.028 62.5393 777.388 72.4047C808.587 72.4047 838.778 72.4047 868.993 72.4047Z" fill="url(#paint43_linear_1_1055)" fill-opacity="0.16"/>
<path d="M765.364 707.304C790.06 707.095 814.755 706.715 839.45 706.715C879.697 706.715 919.92 706.981 960.167 707.152L959.831 707.342L960.167 594.851C901.657 594.927 843.17 595.022 784.66 595.098L784.996 594.832C780.94 618.269 776.932 641.725 772.852 665.163C770.404 679.229 767.86 693.276 765.364 707.323L765.364 707.304Z" fill="url(#paint44_linear_1_1055)" fill-opacity="0.16"/>
<path d="M799.446 503.999C778.375 503.695 757.327 503.181 736.256 503.162C703.593 503.124 670.93 503.447 638.267 503.618C628.451 533.728 618.635 563.837 608.532 594.802L784.999 594.802L784.663 595.068C789.463 564.578 794.238 534.108 799.038 503.618L799.446 503.98L799.446 503.999Z" fill="url(#paint45_linear_1_1055)" fill-opacity="0.16"/>
<path d="M811.323 425.672C807.363 451.789 803.403 477.888 799.443 504.006L799.035 503.644C829.371 503.435 859.706 503.15 890.041 503.017C913.104 502.922 936.168 502.998 959.807 502.998L959.807 425.672L960.167 425.957C910.464 425.957 860.738 425.957 811.035 425.957L811.347 425.71L811.323 425.672Z" fill="url(#paint46_linear_1_1055)" fill-opacity="0.16"/>
<path d="M960.171 594.845L959.835 707.337C972.555 707.128 985.25 706.71 997.97 706.748C1050.19 706.862 1102.42 707.109 1154.64 707.318C1150.56 683.881 1146.5 660.443 1142.42 637.025C1139.97 622.959 1137.48 608.911 1135.01 594.845L1135.37 595.13C1076.86 595.13 1018.37 595.13 959.859 595.13L960.195 594.864L960.171 594.845Z" fill="#5965C7"/>
<path d="M1134.98 594.83L1312 594.83C1301.63 563.865 1291.55 533.793 1281.47 503.722L1281.69 503.874C1279 503.532 1276.29 502.905 1273.6 502.905C1232.13 502.905 1190.66 502.905 1149.19 503.038C1139.66 503.076 1130.13 503.627 1120.61 503.95L1120.94 503.646C1122.14 511.116 1123.37 518.568 1124.54 526.038C1128.14 549.057 1131.74 572.095 1135.32 595.134L1134.96 594.849L1134.98 594.83Z" fill="#5965C7"/>
<path d="M1406.6 425.654C1356.9 425.749 1307.22 425.863 1257.51 425.958L1257.78 425.654C1257.99 427.194 1257.97 428.79 1258.45 430.292C1266.15 454.832 1273.93 479.353 1281.71 503.874L1281.49 503.721C1312.19 503.512 1342.88 503.265 1373.6 503.132C1395.92 503.037 1418.24 503.132 1442.31 503.132C1430.09 476.653 1418.36 451.163 1406.6 425.673L1406.6 425.654Z" fill="#5965C7"/>
<path d="M811.035 425.922C860.738 425.922 910.464 425.922 960.167 425.922C960.167 403.663 960.167 381.385 960.167 359.126C914.472 359.126 868.778 359.126 823.083 359.126C819.915 376.747 816.771 394.368 813.603 411.989C812.763 416.627 811.875 421.265 811.011 425.922L811.035 425.922Z" fill="#5965C7"/>
<path d="M1236.19 359.126L1097.9 359.126C1101.69 382.012 1105.34 403.967 1108.97 425.922L1108.63 425.675C1158.33 425.675 1208.06 425.675 1257.76 425.656L1257.5 425.96C1250.39 403.682 1243.27 381.404 1236.16 359.126L1236.19 359.126Z" fill="#5965C7"/>
<path d="M959.826 425.645L959.826 502.972C936.187 502.972 913.123 502.896 890.06 502.991C859.725 503.124 829.39 503.409 799.054 503.618C794.255 534.108 789.479 564.578 784.679 595.068C843.189 594.992 901.676 594.897 960.186 594.821L959.85 595.087L959.85 503.618L1120.98 503.618L1120.65 503.922C1120.31 500.805 1120.07 497.687 1119.59 494.589C1115.99 471.608 1112.32 448.627 1108.67 425.645L1109.01 425.893C1059.3 425.798 1009.58 425.722 959.874 425.626L959.826 425.645Z" fill="#5965C7"/>
<path d="M1080.14 250.776C1040.04 250.776 999.933 250.776 959.83 250.795L959.83 300.806L1088.37 300.806C1085.56 283.813 1082.85 267.294 1080.14 250.776Z" fill="url(#paint47_linear_1_1055)" fill-opacity="0.16"/>
<path d="M851.998 167.157C850.366 180.558 848.71 193.94 847.078 207.341C884.781 207.284 922.46 207.227 960.163 207.188L959.851 207.379C959.851 193.978 959.851 180.596 959.851 167.195L960.187 167.442L851.782 167.442L852.022 167.176L851.998 167.157Z" fill="#5965C7"/>
<path d="M959.832 167.189C959.832 180.59 959.832 193.972 959.832 207.373C997.535 207.373 1035.21 207.373 1072.92 207.354C1071.28 193.953 1069.63 180.571 1068 167.17L1068.26 167.417C1032.12 167.341 995.975 167.265 959.832 167.189Z" fill="url(#paint48_linear_1_1055)" fill-opacity="0.16"/>
<path d="M959.83 167.197C995.973 167.273 1032.12 167.35 1068.26 167.426L1060.96 131.024C1027.24 131.1 993.549 131.176 959.83 131.253L960.166 131.024L960.166 167.426L959.83 167.178L959.83 167.197Z" fill="#5965C7"/>
<path d="M960.169 167.426L960.169 131.024C926.474 131.024 892.755 131.024 859.06 131.024C856.636 143.152 854.188 155.298 851.764 167.426L960.169 167.426Z" fill="url(#paint49_linear_1_1055)" fill-opacity="0.16"/>
<path d="M859.392 131.285C860.736 121.324 862.08 111.364 863.544 100.643C831.361 100.643 799.634 100.643 767.883 100.643C764.715 110.337 761.523 120.032 757.827 131.285L859.392 131.285Z" fill="url(#paint50_linear_1_1055)" fill-opacity="0.16"/>
<path d="M960.169 72.1279L868.659 72.1279C867.148 80.8148 865.66 89.5016 863.98 99.1579L960.169 99.1579L960.169 72.1279Z" fill="url(#paint51_linear_1_1055)" fill-opacity="0.16"/>
<path d="M1120.96 503.624L959.828 503.624L959.828 595.092C1018.34 595.092 1076.82 595.092 1135.33 595.092C1131.74 572.054 1128.16 549.035 1124.56 525.996C1123.38 518.526 1122.16 511.075 1120.96 503.604L1120.96 503.624Z" fill="url(#paint52_linear_1_1055)" fill-opacity="0.16"/>
<path d="M1108.62 425.673C1112.27 448.654 1115.94 471.635 1119.54 494.616C1120.02 497.715 1120.26 500.832 1120.6 503.95C1130.13 503.626 1139.65 503.075 1149.18 503.037C1190.65 502.885 1232.12 502.885 1273.59 502.904C1276.28 502.904 1278.99 503.531 1281.68 503.874C1273.93 479.353 1266.16 454.832 1258.43 430.292C1257.95 428.79 1257.97 427.213 1257.76 425.654C1208.05 425.654 1158.33 425.654 1108.62 425.673Z" fill="url(#paint53_linear_1_1055)" fill-opacity="0.16"/>
</mask>
<g mask="url(#mask0_1_1055)">
<rect x="0.000732422" y="267" width="1920" height="738" fill="url(#paint54_linear_1_1055)"/>
</g>
<defs>
<linearGradient id="paint0_linear_1_1055" x1="264.427" y1="594.845" x2="264.427" y2="1015.08" gradientUnits="userSpaceOnUse">
<stop stop-color="#141414"/>
<stop offset="1" stop-color="#141414" stop-opacity="0"/>
</linearGradient>
<linearGradient id="paint1_linear_1_1055" x1="1763.41" y1="707.129" x2="1763.41" y2="1015.07" gradientUnits="userSpaceOnUse">
<stop stop-color="#141414"/>
<stop offset="1" stop-color="#141414" stop-opacity="0"/>
</linearGradient>
<linearGradient id="paint2_linear_1_1055" x1="331.232" y1="100.715" x2="331.232" y2="503.96" gradientUnits="userSpaceOnUse">
<stop stop-color="#141414"/>
<stop offset="1" stop-color="#141414" stop-opacity="0"/>
</linearGradient>
<linearGradient id="paint3_linear_1_1055" x1="238.806" y1="250.912" x2="238.806" y2="595.117" gradientUnits="userSpaceOnUse">
<stop stop-color="#141414"/>
<stop offset="1" stop-color="#141414" stop-opacity="0"/>
</linearGradient>
<linearGradient id="paint4_linear_1_1055" x1="838.888" y1="841.91" x2="838.888" y2="1015.06" gradientUnits="userSpaceOnUse">
<stop stop-color="#141414"/>
<stop offset="1" stop-color="#141414" stop-opacity="0"/>
</linearGradient>
<linearGradient id="paint5_linear_1_1055" x1="1311.55" y1="841.896" x2="1311.55" y2="1015.06" gradientUnits="userSpaceOnUse">
<stop stop-color="#141414"/>
<stop offset="1" stop-color="#141414" stop-opacity="0"/>
</linearGradient>
<linearGradient id="paint6_linear_1_1055" x1="351.337" y1="0.0136961" x2="351.337" y2="359.425" gradientUnits="userSpaceOnUse">
<stop stop-color="#141414"/>
<stop offset="1" stop-color="#141414" stop-opacity="0"/>
</linearGradient>
<linearGradient id="paint7_linear_1_1055" x1="1761.73" y1="359.258" x2="1761.73" y2="595.114" gradientUnits="userSpaceOnUse">
<stop stop-color="#141414"/>
<stop offset="1" stop-color="#141414" stop-opacity="0"/>
</linearGradient>
<linearGradient id="paint8_linear_1_1055" x1="1538.01" y1="0.0136951" x2="1538.01" y2="302.4" gradientUnits="userSpaceOnUse">
<stop stop-color="#141414"/>
<stop offset="1" stop-color="#141414" stop-opacity="0"/>
</linearGradient>
<linearGradient id="paint9_linear_1_1055" x1="1390.15" y1="0.0136938" x2="1390.15" y2="251.077" gradientUnits="userSpaceOnUse">
<stop stop-color="#141414"/>
<stop offset="1" stop-color="#141414" stop-opacity="0"/>
</linearGradient>
<linearGradient id="paint10_linear_1_1055" x1="1761.66" y1="167.288" x2="1761.66" y2="359.368" gradientUnits="userSpaceOnUse">
<stop stop-color="#141414"/>
<stop offset="1" stop-color="#141414" stop-opacity="0"/>
</linearGradient>
<linearGradient id="paint11_linear_1_1055" x1="1723" y1="45.6338" x2="1723" y2="251.058" gradientUnits="userSpaceOnUse">
<stop stop-color="#141414"/>
<stop offset="1" stop-color="#141414" stop-opacity="0"/>
</linearGradient>
<linearGradient id="paint12_linear_1_1055" x1="524.608" y1="0.0136879" x2="524.608" y2="167.402" gradientUnits="userSpaceOnUse">
<stop stop-color="#141414"/>
<stop offset="1" stop-color="#141414" stop-opacity="0"/>
</linearGradient>
<linearGradient id="paint13_linear_1_1055" x1="340.612" y1="0.0136867" x2="340.612" y2="167.44" gradientUnits="userSpaceOnUse">
<stop stop-color="#141414"/>
<stop offset="1" stop-color="#141414" stop-opacity="0"/>
</linearGradient>
<linearGradient id="paint14_linear_1_1055" x1="76.6927" y1="503.513" x2="76.6928" y2="595.096" gradientUnits="userSpaceOnUse">
<stop stop-color="#141414"/>
<stop offset="1" stop-color="#141414" stop-opacity="0"/>
</linearGradient>
<linearGradient id="paint15_linear_1_1055" x1="617.502" y1="0.0136828" x2="617.502" y2="101.024" gradientUnits="userSpaceOnUse">
<stop stop-color="#141414"/>
<stop offset="1" stop-color="#141414" stop-opacity="0"/>
</linearGradient>
<linearGradient id="paint16_linear_1_1055" x1="48.7165" y1="842.087" x2="48.7165" y2="992.253" gradientUnits="userSpaceOnUse">
<stop stop-color="#141414"/>
<stop offset="1" stop-color="#141414" stop-opacity="0"/>
</linearGradient>
<linearGradient id="paint17_linear_1_1055" x1="1085.1" y1="0.0136805" x2="1085.1" y2="72.4168" gradientUnits="userSpaceOnUse">
<stop stop-color="#141414"/>
<stop offset="1" stop-color="#141414" stop-opacity="0"/>
</linearGradient>
<linearGradient id="paint18_linear_1_1055" x1="1880.48" y1="594.977" x2="1880.48" y2="693.82" gradientUnits="userSpaceOnUse">
<stop stop-color="#141414"/>
<stop offset="1" stop-color="#141414" stop-opacity="0"/>
</linearGradient>
<linearGradient id="paint19_linear_1_1055" x1="1460.58" y1="0.0136776" x2="1460.58" y2="45.786" gradientUnits="userSpaceOnUse">
<stop stop-color="#141414"/>
<stop offset="1" stop-color="#141414" stop-opacity="0"/>
</linearGradient>
<linearGradient id="paint20_linear_1_1055" x1="877.041" y1="0.0136776" x2="877.041" y2="45.805" gradientUnits="userSpaceOnUse">
<stop stop-color="#141414"/>
<stop offset="1" stop-color="#141414" stop-opacity="0"/>
</linearGradient>
<linearGradient id="paint21_linear_1_1055" x1="709.885" y1="7.24365e-06" x2="709.885" y2="45.8293" gradientUnits="userSpaceOnUse">
<stop stop-color="#141414"/>
<stop offset="1" stop-color="#141414" stop-opacity="0"/>
</linearGradient>
<linearGradient id="paint22_linear_1_1055" x1="1293.89" y1="0.0136776" x2="1293.89" y2="45.786" gradientUnits="userSpaceOnUse">
<stop stop-color="#141414"/>
<stop offset="1" stop-color="#141414" stop-opacity="0"/>
</linearGradient>
<linearGradient id="paint23_linear_1_1055" x1="34.6938" y1="425.804" x2="34.6938" y2="496.135" gradientUnits="userSpaceOnUse">
<stop stop-color="#141414"/>
<stop offset="1" stop-color="#141414" stop-opacity="0"/>
</linearGradient>
<linearGradient id="paint24_linear_1_1055" x1="1001.82" y1="0.0136748" x2="1001.82" y2="21.132" gradientUnits="userSpaceOnUse">
<stop stop-color="#141414"/>
<stop offset="1" stop-color="#141414" stop-opacity="0"/>
</linearGradient>
<linearGradient id="paint25_linear_1_1055" x1="27.1166" y1="207.208" x2="27.1166" y2="247.126" gradientUnits="userSpaceOnUse">
<stop stop-color="#141414"/>
<stop offset="1" stop-color="#141414" stop-opacity="0"/>
</linearGradient>
<linearGradient id="paint26_linear_1_1055" x1="22.0957" y1="72.2461" x2="22.0957" y2="98.8579" gradientUnits="userSpaceOnUse">
<stop stop-color="#141414"/>
<stop offset="1" stop-color="#141414" stop-opacity="0"/>
</linearGradient>
<linearGradient id="paint27_linear_1_1055" x1="1541.34" y1="594.8" x2="1541.34" y2="842.459" gradientUnits="userSpaceOnUse">
<stop stop-color="#141414"/>
<stop offset="1" stop-color="#141414" stop-opacity="0"/>
</linearGradient>
<linearGradient id="paint28_linear_1_1055" x1="572.388" y1="594.832" x2="572.388" y2="842.483" gradientUnits="userSpaceOnUse">
<stop stop-color="#141414"/>
<stop offset="1" stop-color="#141414" stop-opacity="0"/>
</linearGradient>
<linearGradient id="paint29_linear_1_1055" x1="1418.85" y1="359.199" x2="1418.85" y2="707.262" gradientUnits="userSpaceOnUse">
<stop stop-color="#141414"/>
<stop offset="1" stop-color="#141414" stop-opacity="0"/>
</linearGradient>
<linearGradient id="paint30_linear_1_1055" x1="1067.99" y1="706.712" x2="1067.99" y2="842.186" gradientUnits="userSpaceOnUse">
<stop stop-color="#141414"/>
<stop offset="1" stop-color="#141414" stop-opacity="0"/>
</linearGradient>
<linearGradient id="paint31_linear_1_1055" x1="831.52" y1="250.794" x2="831.52" y2="359.465" gradientUnits="userSpaceOnUse">
<stop stop-color="#141414"/>
<stop offset="1" stop-color="#141414" stop-opacity="0"/>
</linearGradient>
<linearGradient id="paint32_linear_1_1055" x1="742.875" y1="359.14" x2="742.875" y2="425.936" gradientUnits="userSpaceOnUse">
<stop stop-color="#141414"/>
<stop offset="1" stop-color="#141414" stop-opacity="0"/>
</linearGradient>
<linearGradient id="paint33_linear_1_1055" x1="619.865" y1="167.111" x2="619.865" y2="251.053" gradientUnits="userSpaceOnUse">
<stop stop-color="#141414"/>
<stop offset="1" stop-color="#141414" stop-opacity="0"/>
</linearGradient>
<linearGradient id="paint34_linear_1_1055" x1="1418.86" y1="250.839" x2="1418.86" y2="425.964" gradientUnits="userSpaceOnUse">
<stop stop-color="#141414"/>
<stop offset="1" stop-color="#141414" stop-opacity="0"/>
</linearGradient>
<linearGradient id="paint35_linear_1_1055" x1="1097.98" y1="302.128" x2="1097.98" y2="425.911" gradientUnits="userSpaceOnUse">
<stop stop-color="#141414"/>
<stop offset="1" stop-color="#141414" stop-opacity="0"/>
</linearGradient>
<linearGradient id="paint36_linear_1_1055" x1="900.015" y1="207.149" x2="900.015" y2="251.059" gradientUnits="userSpaceOnUse">
<stop stop-color="#141414"/>
<stop offset="1" stop-color="#141414" stop-opacity="0"/>
</linearGradient>
<linearGradient id="paint37_linear_1_1055" x1="792.647" y1="167.156" x2="792.647" y2="207.34" gradientUnits="userSpaceOnUse">
<stop stop-color="#141414"/>
<stop offset="1" stop-color="#141414" stop-opacity="0"/>
</linearGradient>
<linearGradient id="paint38_linear_1_1055" x1="1162.15" y1="100.643" x2="1162.15" y2="167.419" gradientUnits="userSpaceOnUse">
<stop stop-color="#141414"/>
<stop offset="1" stop-color="#141414" stop-opacity="0"/>
</linearGradient>
<linearGradient id="paint39_linear_1_1055" x1="1326.36" y1="45.4888" x2="1326.36" y2="100.955" gradientUnits="userSpaceOnUse">
<stop stop-color="#141414"/>
<stop offset="1" stop-color="#141414" stop-opacity="0"/>
</linearGradient>
<linearGradient id="paint40_linear_1_1055" x1="1010.4" y1="100.761" x2="1010.4" y2="131.308" gradientUnits="userSpaceOnUse">
<stop stop-color="#141414"/>
<stop offset="1" stop-color="#141414" stop-opacity="0"/>
</linearGradient>
<linearGradient id="paint41_linear_1_1055" x1="1101.63" y1="72.1143" x2="1101.63" y2="100.931" gradientUnits="userSpaceOnUse">
<stop stop-color="#141414"/>
<stop offset="1" stop-color="#141414" stop-opacity="0"/>
</linearGradient>
<linearGradient id="paint42_linear_1_1055" x1="1184.87" y1="45.4888" x2="1184.87" y2="72.3477" gradientUnits="userSpaceOnUse">
<stop stop-color="#141414"/>
<stop offset="1" stop-color="#141414" stop-opacity="0"/>
</linearGradient>
<linearGradient id="paint43_linear_1_1055" x1="825.603" y1="45.4888" x2="825.603" y2="72.4047" gradientUnits="userSpaceOnUse">
<stop stop-color="#141414"/>
<stop offset="1" stop-color="#141414" stop-opacity="0"/>
</linearGradient>
<linearGradient id="paint44_linear_1_1055" x1="862.766" y1="594.832" x2="862.766" y2="707.342" gradientUnits="userSpaceOnUse">
<stop stop-color="#141414"/>
<stop offset="1" stop-color="#141414" stop-opacity="0"/>
</linearGradient>
<linearGradient id="paint45_linear_1_1055" x1="703.989" y1="503.159" x2="703.989" y2="595.068" gradientUnits="userSpaceOnUse">
<stop stop-color="#141414"/>
<stop offset="1" stop-color="#141414" stop-opacity="0"/>
</linearGradient>
<linearGradient id="paint46_linear_1_1055" x1="879.601" y1="425.672" x2="879.601" y2="504.006" gradientUnits="userSpaceOnUse">
<stop stop-color="#141414"/>
<stop offset="1" stop-color="#141414" stop-opacity="0"/>
</linearGradient>
<linearGradient id="paint47_linear_1_1055" x1="1024.1" y1="250.776" x2="1024.1" y2="300.806" gradientUnits="userSpaceOnUse">
<stop stop-color="#141414"/>
<stop offset="1" stop-color="#141414" stop-opacity="0"/>
</linearGradient>
<linearGradient id="paint48_linear_1_1055" x1="1016.37" y1="167.17" x2="1016.37" y2="207.373" gradientUnits="userSpaceOnUse">
<stop stop-color="#141414"/>
<stop offset="1" stop-color="#141414" stop-opacity="0"/>
</linearGradient>
<linearGradient id="paint49_linear_1_1055" x1="905.966" y1="131.024" x2="905.966" y2="167.426" gradientUnits="userSpaceOnUse">
<stop stop-color="#141414"/>
<stop offset="1" stop-color="#141414" stop-opacity="0"/>
</linearGradient>
<linearGradient id="paint50_linear_1_1055" x1="810.685" y1="100.643" x2="810.685" y2="131.285" gradientUnits="userSpaceOnUse">
<stop stop-color="#141414"/>
<stop offset="1" stop-color="#141414" stop-opacity="0"/>
</linearGradient>
<linearGradient id="paint51_linear_1_1055" x1="912.074" y1="72.1279" x2="912.074" y2="99.1579" gradientUnits="userSpaceOnUse">
<stop stop-color="#141414"/>
<stop offset="1" stop-color="#141414" stop-opacity="0"/>
</linearGradient>
<linearGradient id="paint52_linear_1_1055" x1="1047.58" y1="503.604" x2="1047.58" y2="595.092" gradientUnits="userSpaceOnUse">
<stop stop-color="#141414"/>
<stop offset="1" stop-color="#141414" stop-opacity="0"/>
</linearGradient>
<linearGradient id="paint53_linear_1_1055" x1="1195.15" y1="425.654" x2="1195.15" y2="503.95" gradientUnits="userSpaceOnUse">
<stop stop-color="#141414"/>
<stop offset="1" stop-color="#141414" stop-opacity="0"/>
</linearGradient>
<linearGradient id="paint54_linear_1_1055" x1="960.001" y1="267" x2="960.001" y2="2402.5" gradientUnits="userSpaceOnUse">
<stop stop-color="#181818"/>
<stop offset="1" stop-color="#EA5B2B"/>
</linearGradient>
</defs>
</svg>
