<svg width="747" height="622" viewBox="0 0 747 622" fill="none" xmlns="http://www.w3.org/2000/svg">
<g clip-path="url(#clip0_1_1182)">
<mask id="mask0_1_1182" style="mask-type:luminance" maskUnits="userSpaceOnUse" x="-46" y="218" width="187" height="119">
<path d="M-5.21746 220.372L-45.4184 238.534C-31.7077 232.338 -14.1507 244.979 4.15721 262.673C11.7891 270.051 19.5487 278.305 27.2383 286.488C34.9185 294.656 42.6651 302.903 50.2811 310.265C68.7514 328.123 86.4271 340.778 100.306 334.505L140.507 316.344C126.618 322.62 108.946 309.959 90.482 292.104C82.866 284.742 75.1129 276.492 67.4392 268.327C59.7496 260.144 51.99 251.89 44.3581 244.512C26.0537 226.812 8.49319 214.177 -5.21746 220.372Z" fill="white"/>
</mask>
<g mask="url(#mask0_1_1182)">
<path d="M-5.21823 220.372L-45.4191 238.533C-39.3818 235.807 -32.601 236.73 -25.3384 240.13L14.8624 221.969C7.59991 218.569 0.819082 217.646 -5.21823 220.372Z" fill="#2DA38F"/>
<path d="M14.8624 221.969L-25.3385 240.13C-16.1015 244.448 -6.09522 252.768 4.15285 262.679C11.7848 270.057 19.5444 278.312 27.2339 286.494C34.9141 294.662 42.6607 302.91 50.2768 310.271C60.576 320.227 70.6277 328.572 79.9101 332.914L120.111 314.753C110.829 310.411 100.773 302.073 90.4777 292.11C82.8616 284.749 75.1085 276.498 67.4348 268.333C59.7452 260.151 51.9857 251.896 44.3537 244.518C34.1086 234.617 24.0958 226.294 14.8624 221.969Z" fill="#2DA38F"/>
<path d="M120.122 314.75L79.9216 332.911C87.2849 336.358 94.1715 337.287 100.314 334.508L140.515 316.347C134.372 319.126 127.489 318.19 120.122 314.75Z" fill="#2DA38F"/>
</g>
<mask id="mask1_1_1182" style="mask-type:luminance" maskUnits="userSpaceOnUse" x="98" y="126" width="58" height="210">
<path d="M154.23 126.69L114.03 144.851C113.058 145.287 112.081 145.797 111.091 146.376C91.3555 157.986 99.2473 199.671 106.869 239.986C114.544 280.526 122.479 322.455 102.463 334.225C101.852 334.587 101.234 334.902 100.606 335.188L140.807 317.027C141.434 316.741 142.053 316.426 142.664 316.064C162.684 304.288 154.751 262.368 147.07 221.825C139.445 181.516 131.55 139.821 151.291 128.215C152.282 127.636 153.259 127.126 154.23 126.69Z" fill="white"/>
</mask>
<g mask="url(#mask1_1_1182)">
<path d="M154.232 126.69L114.031 144.851C113.06 145.288 112.082 145.797 111.092 146.376C104.008 150.541 100.486 158.588 99.2308 169.052L139.432 150.891C140.687 140.426 144.215 132.383 151.293 128.215C152.283 127.636 153.261 127.127 154.232 126.69Z" fill="#154B42"/>
<path d="M139.427 150.898L99.226 169.059C96.9898 187.745 101.988 214.152 106.872 239.996C111.783 265.915 116.788 292.402 114.537 311.207L154.738 293.046C156.992 274.235 151.978 247.75 147.073 221.835C142.185 195.997 137.187 169.59 139.427 150.898Z" fill="#154B42"/>
<path d="M154.738 293.046L114.537 311.207C113.27 321.818 109.68 329.988 102.46 334.231C101.85 334.594 101.231 334.909 100.603 335.194L140.804 317.033C141.432 316.748 142.05 316.433 142.661 316.07C149.881 311.827 153.464 303.653 154.738 293.046Z" fill="#154B42"/>
</g>
<mask id="mask2_1_1182" style="mask-type:luminance" maskUnits="userSpaceOnUse" x="366" y="424" width="56" height="27">
<path d="M421.95 424.809L381.75 442.97C378.977 444.222 376.278 445.539 373.647 446.825C371.168 448.033 368.729 449.229 366.324 450.316L406.525 432.155C408.93 431.067 411.365 429.878 413.848 428.664C416.479 427.378 419.174 426.067 421.95 424.809Z" fill="white"/>
</mask>
<g mask="url(#mask2_1_1182)">
<path d="M421.95 424.809L381.75 442.97C378.977 444.222 376.278 445.539 373.647 446.825C371.168 448.033 368.729 449.229 366.324 450.316L406.525 432.155C408.93 431.067 411.365 429.878 413.848 428.664C416.479 427.378 419.174 426.067 421.95 424.809Z" fill="#2DA38F"/>
</g>
<mask id="mask3_1_1182" style="mask-type:luminance" maskUnits="userSpaceOnUse" x="113" y="123" width="286" height="332">
<path d="M329.621 446.372C325.776 442.651 322.009 437.631 318.228 431.219C301.56 402.974 314.431 371.363 326.872 340.798C339.384 310.043 352.328 278.251 335.418 249.586C331.761 243.395 328.147 238.696 324.532 235.201C309.387 220.552 294.374 227.249 277.51 234.776C261.513 241.919 243.371 250.012 222.023 240.255C214.247 236.702 207.144 231.36 200.552 224.991C188.546 213.381 178.255 198.355 168.788 184.517C160.279 172.086 152.291 160.414 144.055 152.459C134.643 143.361 124.922 139.127 113.755 144.166L153.956 126.005C165.123 120.966 174.844 125.2 184.256 134.298C192.488 142.259 200.477 153.931 208.989 166.356C218.459 180.187 228.747 195.22 240.753 206.83C247.345 213.199 254.448 218.54 262.224 222.094C283.562 231.854 301.704 223.761 317.711 216.615C334.575 209.088 349.584 202.397 364.733 217.04C368.342 220.531 371.962 225.234 375.619 231.425C392.536 260.094 379.592 291.886 367.073 322.637C354.628 353.208 341.757 384.82 358.429 413.058C362.21 419.469 365.973 424.496 369.821 428.211C374.907 433.129 380.136 435.766 385.746 436.32C390.068 436.747 394.454 435.902 398.923 434.398L381.448 442.288C384.123 441.076 386.878 439.934 389.717 438.931L365.969 449.655C358.947 452.826 352.181 455.129 345.538 454.477C339.929 453.923 334.7 451.287 329.614 446.369L329.621 446.372Z" fill="white"/>
</mask>
<g mask="url(#mask3_1_1182)">
<path d="M153.961 125.998L113.76 144.159C120.536 141.099 126.776 141.454 132.741 144.238L172.942 126.077C166.977 123.293 160.73 122.934 153.961 125.998Z" fill="#2DA38F"/>
<path d="M172.938 126.084L132.738 144.245C136.602 146.051 140.356 148.875 144.05 152.456C147.355 155.654 150.621 159.449 153.9 163.651L194.1 145.49C190.821 141.288 187.556 137.493 184.251 134.295C180.553 130.721 176.802 127.89 172.938 126.084Z" fill="#2DA38F"/>
<path d="M194.111 145.488L153.91 163.649C158.793 169.907 163.694 177.074 168.793 184.511C174.154 192.346 179.779 200.562 185.829 208.323L226.03 190.162C219.98 182.401 214.355 174.185 208.994 166.35C203.901 158.917 198.994 151.746 194.111 145.488Z" fill="#2DA38F"/>
<path d="M226.019 190.164L185.818 208.325C190.452 214.269 195.332 219.949 200.539 224.984C207.007 231.242 213.977 236.502 221.588 240.051L261.789 221.89C254.181 218.335 247.211 213.074 240.74 206.823C235.533 201.788 230.647 196.105 226.019 190.164Z" fill="#2DA38F"/>
<path d="M261.797 221.894L221.596 240.055C221.735 240.123 221.879 240.184 222.018 240.252C243.356 250.012 261.498 241.919 277.506 234.773C291.072 228.719 303.434 223.204 315.641 228.899L355.841 210.738C343.634 205.043 331.272 210.558 317.707 216.612C301.709 223.755 283.564 231.855 262.219 222.091C262.08 222.023 261.936 221.962 261.797 221.894Z" fill="#2DA38F"/>
<path d="M355.84 210.738L315.639 228.899C318.606 230.282 321.569 232.334 324.526 235.198C326.163 236.78 327.807 238.612 329.449 240.723L369.65 222.562C368.007 220.45 366.37 218.622 364.727 217.037C361.763 214.17 358.807 212.121 355.84 210.738Z" fill="#2DA38F"/>
<path d="M369.65 222.561L329.449 240.722C331.428 243.264 333.413 246.198 335.412 249.582C337.756 253.553 339.524 257.591 340.807 261.67L381.008 243.509C379.729 239.424 377.957 235.392 375.613 231.421C373.614 228.037 371.629 225.103 369.65 222.561Z" fill="#2DA38F"/>
<path d="M381.009 243.509L340.808 261.67C343.646 270.731 344.054 280.034 342.916 289.451L383.117 271.29C384.258 261.866 383.847 252.57 381.009 243.509Z" fill="#2DA38F"/>
<path d="M383.112 271.296L342.911 289.457C340.859 306.419 333.796 323.766 326.872 340.798C319.96 357.777 312.916 375.075 310.874 391.941L351.075 373.78C353.116 356.914 360.161 339.616 367.073 322.637C374.004 305.609 381.06 288.258 383.112 271.296Z" fill="#2DA38F"/>
<path d="M351.075 373.78L310.874 391.941C309.743 401.269 310.145 410.458 312.946 419.388L353.147 401.227C350.346 392.297 349.948 383.101 351.075 373.78Z" fill="#2DA38F"/>
<path d="M353.147 401.227L312.946 419.388C314.196 423.389 315.932 427.333 318.223 431.216C320.365 434.848 322.498 438.033 324.648 440.787L364.849 422.625C362.699 419.872 360.566 416.687 358.424 413.055C356.133 409.172 354.401 405.222 353.147 401.227Z" fill="#2DA38F"/>
<path d="M364.849 422.625L324.648 440.786C326.297 442.9 327.949 444.762 329.621 446.372C332.403 449.063 335.232 451.068 338.137 452.426L378.338 434.265C375.433 432.907 372.604 430.902 369.822 428.211C368.153 426.595 366.497 424.739 364.849 422.625Z" fill="#2DA38F"/>
<path d="M378.338 434.265L338.137 452.426C340.548 453.548 343.005 454.229 345.546 454.481C352.185 455.139 358.954 452.83 365.977 449.658L406.177 431.497C399.155 434.669 392.389 436.971 385.747 436.32C383.206 436.068 380.745 435.394 378.338 434.265Z" fill="#2DA38F"/>
</g>
</g>
<defs>
<clipPath id="clip0_1_1182">
<rect width="294.408" height="756.388" fill="white" transform="matrix(-0.479548 0.877515 0.877515 0.479548 83.1836 0)"/>
</clipPath>
</defs>
</svg>
