<svg width="761" height="622" viewBox="0 0 761 622" fill="none" xmlns="http://www.w3.org/2000/svg">
<g clip-path="url(#clip0_1_1235)">
<mask id="mask0_1_1235" style="mask-type:luminance" maskUnits="userSpaceOnUse" x="752" y="220" width="43" height="20">
<path d="M752.834 220.802L793.035 238.963C793.649 239.239 794.251 239.554 794.848 239.907L754.647 221.746C754.05 221.393 753.441 221.081 752.834 220.802Z" fill="white"/>
</mask>
<g mask="url(#mask0_1_1235)">
<path d="M752.834 220.802L793.035 238.963C793.649 239.239 794.251 239.554 794.848 239.907L754.647 221.746C754.05 221.393 753.441 221.081 752.834 220.802Z" fill="#2DA38F"/>
</g>
<mask id="mask1_1_1235" style="mask-type:luminance" maskUnits="userSpaceOnUse" x="606" y="218" width="187" height="119">
<path d="M752.143 220.372L792.344 238.534C778.633 232.338 761.076 244.979 742.769 262.673C735.137 270.051 727.377 278.305 719.687 286.488C712.007 294.656 704.261 302.903 696.645 310.265C678.174 328.123 660.499 340.778 646.619 334.505L606.418 316.344C620.308 322.62 637.98 309.959 656.444 292.104C664.06 284.742 671.813 276.492 679.487 268.327C687.176 260.144 694.936 251.89 702.568 244.512C720.872 226.812 738.433 214.177 752.143 220.372Z" fill="white"/>
</mask>
<g mask="url(#mask1_1_1235)">
<path d="M752.144 220.372L792.345 238.533C786.308 235.807 779.527 236.73 772.264 240.13L732.063 221.969C739.326 218.569 746.107 217.646 752.144 220.372Z" fill="#2DA38F"/>
<path d="M732.063 221.969L772.264 240.13C763.027 244.448 753.021 252.768 742.773 262.679C735.141 270.057 727.381 278.312 719.692 286.494C712.012 294.662 704.265 302.91 696.649 310.271C686.35 320.227 676.298 328.572 667.016 332.914L626.815 314.753C636.097 310.411 646.152 302.073 656.448 292.11C664.064 284.749 671.817 276.498 679.491 268.333C687.181 260.151 694.94 251.896 702.572 244.518C712.817 234.617 722.83 226.294 732.063 221.969Z" fill="#2DA38F"/>
<path d="M626.803 314.75L667.004 332.911C659.641 336.358 652.754 337.287 646.612 334.508L606.411 316.347C612.553 319.126 619.436 318.19 626.803 314.75Z" fill="#2DA38F"/>
</g>
<mask id="mask2_1_1235" style="mask-type:luminance" maskUnits="userSpaceOnUse" x="591" y="126" width="58" height="210">
<path d="M592.695 126.69L632.896 144.851C633.868 145.287 634.845 145.797 635.835 146.376C655.57 157.986 647.678 199.671 640.057 239.986C632.382 280.526 624.447 322.455 644.463 334.225C645.074 334.587 645.692 334.902 646.32 335.188L606.119 317.027C605.491 316.741 604.873 316.426 604.262 316.064C584.242 304.288 592.174 262.368 599.856 221.825C607.481 181.516 615.376 139.821 595.634 128.215C594.644 127.636 593.667 127.126 592.695 126.69Z" fill="white"/>
</mask>
<g mask="url(#mask2_1_1235)">
<path d="M592.694 126.69L632.895 144.851C633.866 145.288 634.843 145.797 635.834 146.376C642.918 150.541 646.44 158.588 647.695 169.052L607.494 150.891C606.239 140.426 602.711 132.383 595.633 128.215C594.643 127.636 593.665 127.127 592.694 126.69Z" fill="#154B42"/>
<path d="M607.499 150.898L647.7 169.059C649.936 187.745 644.938 214.152 640.054 239.996C635.143 265.915 630.138 292.402 632.389 311.207L592.188 293.046C589.934 274.235 594.948 247.75 599.853 221.835C604.741 195.997 609.739 169.59 607.499 150.898Z" fill="#154B42"/>
<path d="M592.188 293.046L632.388 311.207C633.656 321.818 637.245 329.988 644.466 334.231C645.076 334.594 645.695 334.909 646.322 335.194L606.121 317.033C605.494 316.748 604.875 316.433 604.265 316.07C597.044 311.827 593.462 303.653 592.188 293.046Z" fill="#154B42"/>
</g>
<mask id="mask3_1_1235" style="mask-type:luminance" maskUnits="userSpaceOnUse" x="324" y="424" width="57" height="27">
<path d="M324.975 424.809L365.176 442.97C367.949 444.222 370.647 445.539 373.279 446.825C375.758 448.033 378.197 449.229 380.602 450.316L340.401 432.155C337.996 431.067 335.561 429.878 333.078 428.664C330.447 427.378 327.751 426.067 324.975 424.809Z" fill="white"/>
</mask>
<g mask="url(#mask3_1_1235)">
<path d="M324.975 424.809L365.176 442.97C367.949 444.222 370.647 445.539 373.279 446.825C375.758 448.033 378.197 449.229 380.602 450.316L340.401 432.155C337.996 431.067 335.561 429.878 333.078 428.664C330.447 427.378 327.751 426.067 324.975 424.809Z" fill="#2DA38F"/>
</g>
<mask id="mask4_1_1235" style="mask-type:luminance" maskUnits="userSpaceOnUse" x="348" y="123" width="286" height="332">
<path d="M417.305 446.372C421.15 442.651 424.916 437.631 428.698 431.219C445.366 402.974 432.495 371.363 420.054 340.798C407.541 310.043 394.597 278.251 411.507 249.586C415.165 243.395 418.779 238.696 422.393 235.201C437.539 220.552 452.551 227.249 469.415 234.776C485.413 241.919 503.555 250.012 524.903 240.255C532.679 236.702 539.782 231.36 546.374 224.991C558.38 213.381 568.671 198.355 578.138 184.517C586.646 172.086 594.635 160.414 602.87 152.459C612.283 143.361 622.003 139.127 633.171 144.166L592.97 126.005C581.803 120.966 572.082 125.2 562.67 134.298C554.438 142.259 546.449 153.931 537.937 166.356C528.467 180.187 518.179 195.22 506.173 206.83C499.581 213.199 492.478 218.54 484.702 222.094C463.364 231.854 445.222 223.761 429.214 216.615C412.351 209.088 397.342 202.397 382.193 217.04C378.584 220.531 374.964 225.234 371.307 231.425C354.39 260.094 367.334 291.886 379.853 322.637C392.298 353.208 405.169 384.82 388.497 413.058C384.716 419.469 380.952 424.496 377.104 428.211C372.019 433.129 366.79 435.766 361.18 436.32C356.857 436.747 352.471 435.902 348.003 434.398L365.477 442.288C362.803 441.076 360.048 439.934 357.209 438.931L380.957 449.655C387.979 452.826 394.745 455.129 401.387 454.477C406.997 453.923 412.226 451.287 417.312 446.369L417.305 446.372Z" fill="white"/>
</mask>
<g mask="url(#mask4_1_1235)">
<path d="M592.965 125.998L633.166 144.159C626.39 141.099 620.15 141.454 614.185 144.238L573.984 126.077C579.949 123.293 586.196 122.934 592.965 125.998Z" fill="#2DA38F"/>
<path d="M573.987 126.084L614.188 144.245C610.324 146.051 606.57 148.875 602.876 152.456C599.57 155.654 596.305 159.449 593.026 163.651L552.825 145.49C556.104 141.288 559.369 137.493 562.675 134.295C566.373 130.721 570.123 127.89 573.987 126.084Z" fill="#2DA38F"/>
<path d="M552.815 145.488L593.016 163.649C588.132 169.907 583.232 177.074 578.133 184.511C572.772 192.346 567.147 200.562 561.097 208.323L520.896 190.162C526.946 182.401 532.571 174.185 537.932 166.35C543.024 158.917 547.932 151.746 552.815 145.488Z" fill="#2DA38F"/>
<path d="M520.907 190.164L561.108 208.325C556.474 214.269 551.593 219.949 546.386 224.984C539.919 231.242 532.949 236.502 525.338 240.051L485.137 221.89C492.744 218.335 499.715 213.074 506.185 206.823C511.393 201.788 516.279 196.105 520.907 190.164Z" fill="#2DA38F"/>
<path d="M485.129 221.894L525.33 240.055C525.19 240.123 525.047 240.184 524.907 240.252C503.569 250.012 485.428 241.919 469.42 234.773C455.854 228.719 443.492 223.204 431.285 228.899L391.084 210.738C403.291 205.043 415.653 210.558 429.219 216.612C445.217 223.755 463.362 231.855 484.706 222.091C484.846 222.023 484.989 221.962 485.129 221.894Z" fill="#2DA38F"/>
<path d="M391.086 210.738L431.287 228.899C428.32 230.282 425.357 232.334 422.4 235.198C420.763 236.78 419.119 238.612 417.477 240.723L377.276 222.562C378.918 220.45 380.555 218.622 382.199 217.037C385.163 214.17 388.119 212.121 391.086 210.738Z" fill="#2DA38F"/>
<path d="M377.276 222.561L417.477 240.722C415.497 243.264 413.513 246.198 411.514 249.582C409.17 253.553 407.401 257.591 406.118 261.67L365.918 243.509C367.197 239.424 368.969 235.392 371.313 231.421C373.312 228.037 375.296 225.103 377.276 222.561Z" fill="#2DA38F"/>
<path d="M365.917 243.509L406.118 261.67C403.279 270.731 402.872 280.034 404.01 289.451L363.809 271.29C362.668 261.866 363.079 252.57 365.917 243.509Z" fill="#2DA38F"/>
<path d="M363.813 271.296L404.014 289.457C406.066 306.419 413.129 323.766 420.053 340.798C426.966 357.777 434.01 375.075 436.052 391.941L395.851 373.78C393.809 356.914 386.765 339.616 379.853 322.637C372.922 305.609 365.865 288.258 363.813 271.296Z" fill="#2DA38F"/>
<path d="M395.85 373.78L436.051 391.941C437.182 401.269 436.78 410.458 433.98 419.388L393.779 401.227C396.579 392.297 396.978 383.101 395.85 373.78Z" fill="#2DA38F"/>
<path d="M393.778 401.227L433.979 419.388C432.729 423.389 430.994 427.333 428.703 431.216C426.561 434.848 424.427 438.033 422.277 440.787L382.076 422.625C384.227 419.872 386.36 416.687 388.502 413.055C390.793 409.172 392.525 405.222 393.778 401.227Z" fill="#2DA38F"/>
<path d="M382.077 422.625L422.278 440.786C420.629 442.9 418.977 444.762 417.305 446.372C414.522 449.063 411.693 451.068 408.789 452.426L368.588 434.265C371.492 432.907 374.322 430.902 377.104 428.211C378.772 426.595 380.428 424.739 382.077 422.625Z" fill="#2DA38F"/>
<path d="M368.587 434.265L408.788 452.426C406.378 453.548 403.92 454.229 401.38 454.481C394.741 455.139 387.971 452.83 380.949 449.658L340.748 431.497C347.77 434.669 354.536 436.971 361.179 436.32C363.72 436.068 366.181 435.394 368.587 434.265Z" fill="#2DA38F"/>
</g>
</g>
<defs>
<clipPath id="clip0_1_1235">
<rect width="294.408" height="756.388" fill="white" transform="translate(663.742) rotate(61.3441)"/>
</clipPath>
</defs>
</svg>
