<svg width="32" height="32" viewBox="0 0 32 32" fill="none" xmlns="http://www.w3.org/2000/svg">
<path d="M12.8299 1.03943C13.7489 0.364162 14.8596 0 16 0C17.1404 0 18.2511 0.364162 19.1701 1.03943L21.0262 2.39958C21.3322 2.6256 21.6862 2.77162 22.0623 2.82962L24.3384 3.17966C25.4649 3.35241 26.507 3.88004 27.3131 4.68583C28.1192 5.49162 28.6473 6.53356 28.8205 7.66013L29.1706 9.93637C29.2286 10.3104 29.3746 10.6664 29.6006 10.9725L30.9606 12.8287C31.6359 13.7478 32 14.8585 32 15.999C32 17.1395 31.6359 18.2502 30.9606 19.1693L29.6006 21.0255C29.3765 21.3315 29.229 21.6868 29.1706 22.0616L28.8205 24.3379C28.6477 25.4648 28.1198 26.5072 27.3137 27.3134C26.5075 28.1196 25.4652 28.6475 24.3384 28.8203L22.0623 29.1704C21.6875 29.2288 21.3322 29.3763 21.0262 29.6004L19.1701 30.9606C18.2511 31.6358 17.1404 32 16 32C14.8596 32 13.7489 31.6358 12.8299 30.9606L10.9738 29.6004C10.6678 29.3763 10.3125 29.2288 9.93775 29.1704L7.65965 28.8223C6.53343 28.6492 5.49178 28.1214 4.68607 27.3156C3.88036 26.5099 3.35259 25.4682 3.17946 24.3419L2.82944 22.0656C2.771 21.6908 2.62353 21.3355 2.39943 21.0295L1.03937 19.1733C0.364139 18.2542 0 17.1435 0 16.003C0 14.8625 0.364139 13.7518 1.03937 12.8327L2.39943 10.9765C2.62464 10.6711 2.77222 10.3155 2.82944 9.94037L3.17946 7.66013C3.35259 6.53384 3.88036 5.49212 4.68607 4.68636C5.49178 3.88061 6.53343 3.3528 7.65965 3.17966L9.93575 2.82962C10.3098 2.77162 10.6658 2.6256 10.9718 2.39958L12.8299 1.03943ZM17.3941 3.45769C16.9896 3.16157 16.5013 3.00194 16 3.00194C15.4987 3.00194 15.0104 3.16157 14.6059 3.45769L12.7499 4.81783C12.0539 5.33002 11.244 5.66566 10.3898 5.79593L8.11767 6.14397C7.62143 6.22026 7.16245 6.45283 6.80744 6.80786C6.45242 7.1629 6.21987 7.62191 6.14358 8.11818L5.79557 10.3924C5.66531 11.2467 5.32969 12.0566 4.81753 12.7527L3.45747 14.6069C2.84745 15.4369 2.84745 16.5671 3.45747 17.3951L4.81753 19.2513C5.32955 19.9474 5.66356 20.7555 5.79557 21.6116L6.14358 23.8838C6.29959 24.9039 7.09963 25.702 8.11767 25.858L10.3918 26.2061C11.2458 26.3381 12.0538 26.6721 12.7519 27.1842L14.6059 28.5443C15.436 29.1544 16.566 29.1544 17.3941 28.5443L19.2501 27.1842C19.9461 26.672 20.756 26.3363 21.6102 26.2061L23.8823 25.858C24.9024 25.702 25.7004 24.9019 25.8564 23.8838L26.2044 21.6096C26.3364 20.7555 26.6705 19.9474 27.1825 19.2493L28.5425 17.3951C29.1526 16.5651 29.1526 15.4349 28.5425 14.6069L27.1825 12.7507C26.6703 12.0546 26.3347 11.2447 26.2044 10.3904L25.8564 8.11818C25.7801 7.62191 25.5476 7.1629 25.1926 6.80786C24.8375 6.45283 24.3786 6.22026 23.8823 6.14397L21.6082 5.79593C20.754 5.66566 19.9441 5.33002 19.2481 4.81783L17.3941 3.45769ZM13.8399 12.1706C13.6604 12.5234 13.3507 12.7909 12.9747 12.9148C12.5988 13.0388 12.1892 13.0091 11.835 12.8323C11.4809 12.6555 11.211 12.3458 11.0841 11.9709C10.9573 11.5959 10.9837 11.186 11.1578 10.8305C11.4958 10.1524 12.0298 9.42831 12.8559 8.87626C13.6919 8.3202 14.7379 8.00016 16 8.00016C17.176 7.99226 18.3238 8.36017 19.2761 9.05027C20.2802 9.80435 21.0002 10.9805 21.0002 12.5006C21.0002 13.3967 20.7702 14.1608 20.3422 14.8009C19.9322 15.4149 19.4021 15.827 18.9581 16.125C18.7401 16.269 18.5181 16.401 18.3321 16.5151L18.3201 16.5231C18.1442 16.6255 17.9708 16.7322 17.8001 16.8431C17.5859 16.9689 17.3983 17.1353 17.2481 17.3331C17.0254 17.6594 16.683 17.8846 16.2952 17.9599C15.9075 18.0353 15.5057 17.9546 15.1771 17.7355C14.8484 17.5164 14.6194 17.1765 14.5399 16.7896C14.4603 16.4027 14.5365 16 14.7519 15.669C15.12 15.1409 15.592 14.6909 16.136 14.3468C16.354 14.2008 16.576 14.0688 16.762 13.9568L16.776 13.9488C16.976 13.8268 17.14 13.7288 17.2921 13.6268C17.5065 13.5005 17.6946 13.3341 17.8461 13.1367C17.9201 13.0287 18.0001 12.8547 18.0001 12.5006C18.0077 12.2957 17.9637 12.0922 17.8721 11.9087C17.7806 11.7252 17.6444 11.5677 17.4761 11.4505C17.0426 11.1511 16.5268 10.9938 16 11.0005C15.262 11.0005 14.81 11.1805 14.5199 11.3745C14.2272 11.5755 13.9927 11.8501 13.8399 12.1706ZM18.0001 22.0016C18.0001 22.5321 17.7894 23.0409 17.4143 23.416C17.0392 23.7911 16.5305 24.0018 16 24.0018C15.4695 24.0018 14.9608 23.7911 14.5857 23.416C14.2106 23.0409 13.9999 22.5321 13.9999 22.0016C13.9999 21.4711 14.2106 20.9624 14.5857 20.5873C14.9608 20.2122 15.4695 20.0014 16 20.0014C16.5305 20.0014 17.0392 20.2122 17.4143 20.5873C17.7894 20.9624 18.0001 21.4711 18.0001 22.0016Z" fill="#DB5356"/>
</svg>
