<svg width="33" height="31" viewBox="0 0 33 31" fill="none" xmlns="http://www.w3.org/2000/svg">
<path d="M14.8771 16.5599L12.6358 14.4022C12.3525 14.1246 11.9985 13.9858 11.574 13.9858C11.1494 13.9858 10.7821 14.1372 10.4719 14.4401C10.1885 14.7177 10.0468 15.071 10.0468 15.5C10.0468 15.929 10.1885 16.2823 10.4719 16.5599L13.7951 19.8155C14.1042 20.1183 14.4649 20.2698 14.8771 20.2698C15.2892 20.2698 15.6499 20.1183 15.959 19.8155L22.5281 13.3801C22.8372 13.0773 22.9851 12.7239 22.9717 12.3202C22.9583 11.9164 22.8104 11.5631 22.5281 11.2602C22.219 10.9574 21.8521 10.7999 21.4276 10.7878C21.003 10.7757 20.6357 10.9205 20.3255 11.2224L14.8771 16.5599ZM10.5492 30.2635L8.30796 26.5537L4.05738 25.6452C3.67096 25.5695 3.36183 25.3742 3.12998 25.0592C2.89813 24.7442 2.80796 24.397 2.85948 24.0174L3.28454 19.7398L0.386417 16.4842C0.128806 16.2066 0 15.8786 0 15.5C0 15.1214 0.128806 14.7934 0.386417 14.5158L3.28454 11.2602L2.85948 6.98257C2.80796 6.60402 2.89813 6.25676 3.12998 5.9408C3.36183 5.62483 3.67096 5.4295 4.05738 5.3548L8.30796 4.44627L10.5492 0.736462C10.7553 0.408383 11.0386 0.187309 11.3993 0.0732384C11.76 -0.040832 12.1206 -0.0216521 12.4813 0.130778L16.5 1.79641L20.5187 0.130778C20.8794 -0.0206426 21.24 -0.0398225 21.6007 0.0732384C21.9614 0.186299 22.2447 0.407374 22.4508 0.736462L24.692 4.44627L28.9426 5.3548C29.329 5.43051 29.6382 5.62635 29.87 5.94231C30.1019 6.25828 30.192 6.60503 30.1405 6.98257L29.7155 11.2602L32.6136 14.5158C32.8712 14.7934 33 15.1214 33 15.5C33 15.8786 32.8712 16.2066 32.6136 16.4842L29.7155 19.7398L30.1405 24.0174C30.192 24.396 30.1019 24.7432 29.87 25.0592C29.6382 25.3752 29.329 25.5705 28.9426 25.6452L24.692 26.5537L22.4508 30.2635C22.2447 30.5916 21.9614 30.8127 21.6007 30.9268C21.24 31.0408 20.8794 31.0217 20.5187 30.8692L16.5 29.2036L12.4813 30.8692C12.1206 31.0206 11.76 31.0398 11.3993 30.9268C11.0386 30.8137 10.7553 30.5926 10.5492 30.2635Z" fill="#39A279"/>
</svg>
