<svg width="33" height="32" viewBox="0 0 33 32" fill="none" xmlns="http://www.w3.org/2000/svg">
<path id="Vector" d="M14.8771 17.0599L12.6358 14.9022C12.3525 14.6246 11.9985 14.4858 11.574 14.4858C11.1494 14.4858 10.7821 14.6372 10.4719 14.9401C10.1885 15.2177 10.0468 15.571 10.0468 16C10.0468 16.429 10.1885 16.7823 10.4719 17.0599L13.7951 20.3155C14.1042 20.6183 14.4649 20.7698 14.8771 20.7698C15.2892 20.7698 15.6499 20.6183 15.959 20.3155L22.5281 13.8801C22.8372 13.5773 22.9851 13.2239 22.9717 12.8202C22.9583 12.4164 22.8104 12.0631 22.5281 11.7602C22.219 11.4574 21.8521 11.2999 21.4276 11.2878C21.003 11.2757 20.6357 11.4205 20.3255 11.7224L14.8771 17.0599ZM10.5492 30.7635L8.30796 27.0537L4.05738 26.1452C3.67096 26.0695 3.36183 25.8742 3.12998 25.5592C2.89813 25.2442 2.80796 24.897 2.85948 24.5174L3.28454 20.2398L0.386417 16.9842C0.128806 16.7066 0 16.3786 0 16C0 15.6214 0.128806 15.2934 0.386417 15.0158L3.28454 11.7602L2.85948 7.48257C2.80796 7.10402 2.89813 6.75676 3.12998 6.4408C3.36183 6.12483 3.67096 5.9295 4.05738 5.8548L8.30796 4.94627L10.5492 1.23646C10.7553 0.908383 11.0386 0.687309 11.3993 0.573238C11.76 0.459168 12.1206 0.478348 12.4813 0.630778L16.5 2.29641L20.5187 0.630778C20.8794 0.479357 21.24 0.460177 21.6007 0.573238C21.9614 0.686299 22.2447 0.907374 22.4508 1.23646L24.692 4.94627L28.9426 5.8548C29.329 5.93051 29.6382 6.12635 29.87 6.44231C30.1019 6.75828 30.192 7.10503 30.1405 7.48257L29.7155 11.7602L32.6136 15.0158C32.8712 15.2934 33 15.6214 33 16C33 16.3786 32.8712 16.7066 32.6136 16.9842L29.7155 20.2398L30.1405 24.5174C30.192 24.896 30.1019 25.2432 29.87 25.5592C29.6382 25.8752 29.329 26.0705 28.9426 26.1452L24.692 27.0537L22.4508 30.7635C22.2447 31.0916 21.9614 31.3127 21.6007 31.4268C21.24 31.5408 20.8794 31.5217 20.5187 31.3692L16.5 29.7036L12.4813 31.3692C12.1206 31.5206 11.76 31.5398 11.3993 31.4268C11.0386 31.3137 10.7553 31.0926 10.5492 30.7635Z" fill="#F2F2F2"/>
</svg>
