<svg width="21" height="17" viewBox="0 0 21 17" fill="none" xmlns="http://www.w3.org/2000/svg">
<path d="M2.23107 3.06355L2.2311 3.06346C2.32477 2.69973 2.59131 2.40934 2.91751 2.31842L2.23107 3.06355ZM2.23107 3.06355C2.11472 3.51614 1.82518 5.33662 1.82518 8.18904C1.82518 11.0416 2.11474 12.8609 2.23102 13.3153L2.42748 13.2651M2.23107 3.06355L2.42748 13.2651M2.42748 13.2651L2.23102 13.3153C2.32378 13.6778 2.59087 13.9681 2.91898 14.0588L2.97301 13.8633M2.42748 13.2651L18.0487 13.3145M18.0487 13.3145L18.0486 13.3146C17.955 13.6784 17.6884 13.9688 17.3622 14.0597C17.1172 14.1281 16.4475 14.2312 15.2826 14.3177C14.1109 14.4047 12.4254 14.4758 10.1399 14.4758C7.85438 14.4758 6.1691 14.4047 4.9976 14.3175C3.83284 14.2309 3.16305 14.1276 2.918 14.0585L2.97301 13.8633M18.0487 13.3145C18.165 12.8619 18.4546 11.0374 18.4546 8.18904C18.4546 5.34119 18.1651 3.51789 18.0488 3.06392C17.956 2.70015 17.6889 2.41023 17.3603 2.31844M18.0487 13.3145L17.3603 2.31844M2.97301 13.8633C3.41916 13.9891 5.57693 14.273 10.1399 14.273C14.7028 14.273 16.8616 13.9891 17.3077 13.8643L2.97301 13.8633ZM19.6199 2.66047L19.6199 2.66031C19.3826 1.73199 18.6822 1.00448 17.7965 0.755078C17.3835 0.640092 16.7021 0.5507 15.8982 0.482848C15.0987 0.415366 14.1926 0.370261 13.3386 0.340152C12.4849 0.310055 11.685 0.294999 11.0985 0.287471C10.8052 0.283707 10.5654 0.281826 10.399 0.280885C10.3158 0.280415 10.2509 0.28018 10.2069 0.280063L10.1568 0.27996L10.1441 0.279948L10.1409 0.279946L10.1401 0.279946L10.1399 0.279946L10.1399 0.0771484L10.1398 0.279946L10.1396 0.279946L10.1388 0.279946L10.1357 0.279948L10.1229 0.27996L10.0729 0.280063C10.0289 0.28018 9.96405 0.280415 9.88087 0.280885C9.71451 0.281826 9.4748 0.283707 9.18169 0.287471C8.59537 0.294999 7.79578 0.310055 6.94231 0.340152C6.08851 0.370261 5.18249 0.415366 4.38281 0.482849C3.57862 0.550712 2.89671 0.640128 2.48289 0.755172L19.6199 2.66047ZM19.6199 2.66047C19.8459 3.54174 19.9613 4.91762 20.0193 6.0872C20.0481 6.66906 20.0625 7.1949 20.0697 7.57528C20.0733 7.76542 20.0751 7.91911 20.076 8.02516C20.0765 8.07818 20.0767 8.11928 20.0768 8.14706L20.0769 8.17857L20.0769 8.1865L20.0769 8.18845V8.18892V8.18903L20.2797 8.18904L20.0769 8.18906V8.18917V8.18964L20.0769 8.19159L20.0769 8.19952L20.0768 8.23103C20.0767 8.25881 20.0765 8.29991 20.076 8.35293C20.0751 8.45898 20.0733 8.61267 20.0697 8.80281C20.0625 9.18319 20.0481 9.70903 20.0193 10.2909C19.9613 11.4604 19.8459 12.8361 19.62 13.7174C19.3796 14.6495 18.6778 15.3776 17.7968 15.6229L17.7968 15.6229C17.3838 15.738 16.7023 15.8274 15.8982 15.8952C15.0987 15.9627 14.1926 16.0078 13.3386 16.0379C12.4849 16.068 11.685 16.0831 11.0985 16.0906C10.8052 16.0944 10.5654 16.0963 10.399 16.0972C10.3158 16.0977 10.2509 16.0979 10.2069 16.098L10.1568 16.0981L10.1441 16.0981L10.1409 16.0981H10.1401H10.1399L10.1399 16.3009M19.6199 2.66047L10.1399 16.3009M10.1399 16.3009L10.1398 16.0981H10.1396H10.1388L10.1357 16.0981L10.1229 16.0981L10.0729 16.098C10.0289 16.0979 9.96405 16.0977 9.88087 16.0972C9.71451 16.0963 9.4748 16.0944 9.18169 16.0906C8.59537 16.0831 7.79578 16.068 6.94231 16.0379C6.08851 16.0078 5.18249 15.9627 4.38281 15.8952C3.57878 15.8274 2.89698 15.738 2.48314 15.623C1.59745 15.3736 0.897143 14.6461 0.659873 13.7178L0.659833 13.7176C0.433826 12.8363 0.318432 11.4605 0.260473 10.2909C0.231638 9.70903 0.217214 9.18319 0.210001 8.80281C0.206396 8.61267 0.204595 8.45898 0.203695 8.35293C0.203245 8.29991 0.203021 8.25881 0.202909 8.23103L0.202811 8.19952L0.202799 8.19159L0.202798 8.18964L0.202797 8.18917L0.202797 8.18906L0 8.18904L0.202797 8.18903L0.202797 8.18892L0.202798 8.18845L0.202799 8.1865L0.202811 8.17857L0.202909 8.14706C0.203021 8.11928 0.203245 8.07818 0.203695 8.02516C0.204595 7.91911 0.206396 7.76542 0.210001 7.57528C0.217214 7.1949 0.231638 6.66906 0.260473 6.0872C0.318429 4.91768 0.433814 3.54189 0.659796 2.66061C0.900197 1.72851 1.60195 1.00048 2.48282 0.755192L10.1399 16.3009ZM17.3603 2.31844C17.1164 2.2499 16.447 2.14689 15.2827 2.06043C14.1111 1.97342 12.4254 1.90233 10.1399 1.90233C7.85438 1.90233 6.1691 1.97342 4.9975 2.06043C3.83252 2.14695 3.16282 2.25001 2.91755 2.31841L17.3603 2.31844ZM13.7933 8.18904L8.31469 11.3849V4.99317L13.7933 8.18904Z" fill="#E8EDD9" stroke="#181818" stroke-width="0.405595"/>
</svg>
